<svg width="90" height="90" xmlns="http://www.w3.org/2000/svg" xmlns:xlink="http://www.w3.org/1999/xlink"><defs><path id="a" d="M0 0h90v90H0z"/></defs><g fill="none" fill-rule="evenodd"><g><mask id="b" fill="#fff"><use xlink:href="#a"/></mask><path d="M39.77 84.955c.242.013.42.03.6.03 3.099.001 6.198-.012 9.298.012.49.004.617-.186.655-.614.142-1.605.302-3.21.458-4.814.252-2.588 1.533-4.436 3.948-5.458 1.302-.549 2.608-1.086 3.915-1.622 2.393-.983 4.607-.675 6.62.953a224.956 224.956 0 0 1 3.861 3.177c.34.287.542.27.852-.044a734.507 734.507 0 0 1 6.615-6.61c.352-.346.291-.556.01-.892-1.11-1.317-2.215-2.637-3.274-3.992-1.47-1.88-1.776-3.968-.92-6.192a97.64 97.64 0 0 1 1.829-4.415c.812-1.836 2.198-3.114 4.172-3.48 1.953-.36 3.952-.48 5.934-.673.49-.047.677-.187.673-.717-.025-3.08-.026-6.161.001-9.242.004-.518-.192-.644-.65-.683a257.368 257.368 0 0 1-4.87-.467c-2.543-.265-4.357-1.546-5.361-3.919a216.399 216.399 0 0 1-1.665-4.012c-.95-2.379-.62-4.575 1.006-6.564 1.044-1.276 2.08-2.559 3.146-3.817.3-.354.29-.565-.044-.895a687.13 687.13 0 0 1-6.577-6.57c-.328-.332-.536-.352-.893-.052a176.113 176.113 0 0 1-3.947 3.243c-1.94 1.545-4.088 1.831-6.385.933-1.4-.548-2.79-1.119-4.165-1.724-2.094-.921-3.393-2.508-3.736-4.784-.208-1.378-.295-2.773-.438-4.16-.063-.609-.13-1.217-.196-1.835-.205-.017-.347-.04-.49-.04-3.136-.002-6.271.01-9.406-.012-.483-.003-.62.178-.658.613-.14 1.624-.3 3.247-.463 4.869-.262 2.593-1.583 4.413-3.997 5.421-1.337.558-2.668 1.133-4.017 1.66-2.278.89-4.412.6-6.338-.922a175.552 175.552 0 0 1-3.99-3.277c-.33-.278-.539-.276-.853.042-2.137 2.167-4.295 4.315-6.446 6.468-.567.569-.56.566-.066 1.165 1.038 1.257 2.084 2.508 3.101 3.781 1.563 1.956 1.852 4.118.934 6.433a117.85 117.85 0 0 1-1.755 4.21c-.929 2.103-2.554 3.359-4.826 3.674-1.757.244-3.53.383-5.298.534-.49.042-.682.18-.677.714.026 3.081.027 6.162-.001 9.243-.004.517.19.646.647.684 1.624.139 3.246.298 4.869.463 2.477.253 4.28 1.481 5.3 3.768a95.955 95.955 0 0 1 1.767 4.263c.887 2.28.588 4.41-.943 6.334a190.422 190.422 0 0 1-3.274 3.992c-.272.324-.257.513.04.807a879.37 879.37 0 0 1 6.652 6.65c.296.3.491.311.809.043a231.696 231.696 0 0 1 3.945-3.245c1.859-1.492 3.944-1.863 6.178-1.049 1.563.57 3.095 1.233 4.616 1.912 1.657.741 2.846 1.992 3.296 3.75.328 1.287.4 2.641.562 3.968.121.984.206 1.973.31 2.983M81.91 20.29c-.015 1.409-.42 2.531-1.21 3.507-1.097 1.351-2.194 2.701-3.313 4.032-.435.517-.527 1.027-.257 1.65a154.026 154.026 0 0 1 1.58 3.811c.245.61.666.893 1.316.95 1.787.158 3.571.338 5.355.532 2.606.282 4.608 2.517 4.612 5.134.004 3.37.003 6.742.006 10.112.002 2.669-1.954 4.895-4.606 5.197-1.782.204-3.567.376-5.354.537-.645.058-1.077.327-1.323.94a182.966 182.966 0 0 1-1.602 3.864c-.257.603-.154 1.099.266 1.6 1.153 1.375 2.304 2.752 3.404 4.168 1.41 1.818 1.507 4.288.28 6.094a6.75 6.75 0 0 1-.812.947 1989.073 1989.073 0 0 1-7.072 7.074c-1.802 1.79-4.73 1.973-6.765.39a145.845 145.845 0 0 1-4.211-3.436c-.535-.449-1.056-.547-1.7-.268-1.245.54-2.5 1.059-3.762 1.56-.63.25-.923.679-.982 1.352-.152 1.75-.34 3.498-.522 5.246-.275 2.651-2.456 4.678-5.117 4.699-3.407.025-6.815.023-10.222 0a5.186 5.186 0 0 1-5.125-4.686c-.18-1.784-.368-3.568-.535-5.353-.057-.608-.344-1.003-.906-1.231a331.423 331.423 0 0 1-3.916-1.62c-.558-.235-1.043-.167-1.513.225-1.266 1.056-2.55 2.092-3.818 3.145-2.106 1.749-4.753 1.923-6.752.407-.43-.327-.803-.731-1.187-1.115a4310.2 4310.2 0 0 1-6.307-6.303c-2.184-2.184-2.352-4.942-.424-7.376a184.06 184.06 0 0 1 3.24-3.951c.407-.486.491-.975.245-1.555a221.762 221.762 0 0 1-1.597-3.864c-.244-.608-.668-.894-1.317-.954-1.786-.161-3.57-.34-5.353-.533-2.572-.28-4.58-2.43-4.608-5.024-.038-3.498-.037-6.996.01-10.493.032-2.52 2.05-4.643 4.587-4.923 1.783-.196 3.568-.375 5.354-.537.645-.057 1.077-.33 1.322-.942a169.664 169.664 0 0 1 1.601-3.863c.261-.605.156-1.102-.262-1.6a255.24 255.24 0 0 1-3.28-3.987c-1.825-2.263-1.656-5.171.398-7.22 2.32-2.318 4.632-4.645 6.96-6.956 1.977-1.963 4.868-2.123 7.056-.385a168.199 168.199 0 0 1 4.033 3.31c.554.47 1.092.537 1.749.248a121.173 121.173 0 0 1 3.764-1.56c.592-.235.868-.648.927-1.272.17-1.821.34-3.643.55-5.46C35.093 2.019 37.27.05 39.84.028c3.461-.032 6.924-.038 10.386-.011 2.518.019 4.698 2.006 4.995 4.523.212 1.798.382 3.603.54 5.408.059.667.333 1.105.97 1.356 1.264.497 2.519 1.019 3.765 1.56.64.277 1.165.192 1.7-.26A240.97 240.97 0 0 1 66.232 9.3c2.152-1.735 5.1-1.581 7.057.367 2.389 2.378 4.77 4.764 7.153 7.148 1.001 1 1.459 2.222 1.47 3.476" stroke="#22222B" stroke-width="1.286" fill="#22222B" mask="url(#b)"/></g><path d="M58.831 45.016a13.821 13.821 0 0 0-13.853-13.855c-7.637.005-13.807 6.193-13.81 13.845-.002 7.66 6.203 13.842 13.88 13.826 7.606-.015 13.784-6.207 13.783-13.816M45.012 63.83c-10.497-.027-18.874-8.438-18.851-18.927.023-10.383 8.495-18.767 18.936-18.742 10.403.025 18.773 8.507 18.743 18.99-.031 10.29-8.514 18.705-18.828 18.68" stroke="#22222B" stroke-width="1.286" fill="#22222B"/></g></svg>