<svg width="201" height="20" xmlns="http://www.w3.org/2000/svg"><g fill-rule="nonzero" fill="none"><path d="M13.667 1.09c1.155.384 2.022.961 2.631 1.698.61.738.93 1.571.93 2.533 0 .929-.288 1.794-.866 2.532-.577.737-1.347 1.25-2.342 1.538a4.781 4.781 0 0 1 2.76 1.699c.673.865 1.026 1.923 1.026 3.109 0 1.057-.32 2.019-.962 2.82-.642.802-1.54 1.443-2.695 1.891-1.155.449-2.503.641-4.043.641H0V.481h9.657c1.54 0 2.855.192 4.01.609zm-3.304 6.346c.256-.257.385-.577.385-.994 0-.384-.129-.705-.385-.961-.257-.257-.61-.353-1.059-.353H6.288v2.725h3.016c.45-.032.802-.16 1.059-.417zm.353 7.083a1.32 1.32 0 0 0 .513-1.09c0-.416-.16-.737-.513-.993-.353-.257-.834-.385-1.412-.385H6.288v2.917h3.016c.578-.032 1.059-.192 1.412-.449zM33.655 19.551l-.962-2.692h-7.155l-.962 2.692h-6.481L26.148.481h6.48l7.764 19.07h-6.737zm-6.48-7.211h3.978l-1.957-5.577-2.022 5.577zM52.456 19.551l-2.278-4.936h-2.374v4.936h-6.32V.481h9.207c2.599 0 4.588.577 6.032 1.795 1.411 1.186 2.117 2.852 2.117 5.032 0 1.378-.256 2.564-.77 3.59a5.87 5.87 0 0 1-2.246 2.435l3.754 6.218h-7.122zm-4.684-9.743h2.92c.673 0 1.218-.193 1.603-.61.385-.416.546-.96.546-1.698 0-.705-.193-1.25-.546-1.635-.385-.384-.898-.577-1.604-.577h-2.92v4.52zM74.048.48h5.71v19.071h-5.293l-7.508-9.743v9.743h-5.743V.481h5.294l7.54 9.775zM82.485.48h16.138v4.776h-9.817v2.34h8.919v4.776h-8.92v2.372H98.88v4.807H82.485zM112.098 5.513c-1.283-.449-2.31-.673-3.112-.673-.77 0-1.155.288-1.155.833 0 .449.257.77.738.994.513.224 1.283.512 2.374.8 1.348.386 2.502.77 3.4 1.155.9.384 1.67.993 2.343 1.795.674.833.994 1.89.994 3.237 0 1.378-.352 2.532-1.058 3.461-.706.93-1.669 1.635-2.888 2.084-1.219.448-2.566.673-4.042.673-1.7 0-3.401-.289-5.101-.834-1.7-.544-3.209-1.314-4.46-2.275l2.342-4.744c.963.834 2.182 1.539 3.625 2.148 1.444.577 2.663.897 3.658.897.481 0 .834-.096 1.123-.256.289-.16.417-.449.417-.802 0-.448-.257-.769-.77-1.025-.513-.257-1.315-.513-2.438-.77-1.348-.352-2.47-.705-3.37-1.057-.897-.385-1.667-.962-2.341-1.73-.642-.77-.963-1.828-.963-3.142 0-1.282.321-2.372.995-3.333.674-.962 1.636-1.667 2.855-2.18 1.22-.513 2.663-.769 4.3-.769 1.475 0 2.983.192 4.459.609 1.476.417 2.76.962 3.85 1.667l-2.278 4.807a23.461 23.461 0 0 0-3.497-1.57z" fill="#FFF"/><g fill="#3ABFEF"><path d="M135.647 6.058c-.802-.481-1.54-.705-2.31-.705-.738 0-1.412.192-2.021.576-.61.385-1.091.93-1.412 1.603a5.453 5.453 0 0 0-.513 2.34c0 .865.16 1.666.513 2.34.32.705.802 1.25 1.412 1.634.61.385 1.283.61 2.021.61.706 0 1.444-.193 2.214-.61.802-.417 1.475-.961 2.117-1.602l3.658 3.878c-1.06 1.186-2.342 2.115-3.85 2.82-1.508.705-2.984 1.058-4.46 1.058-1.925 0-3.657-.417-5.197-1.282a9.208 9.208 0 0 1-3.594-3.59c-.866-1.538-1.315-3.237-1.315-5.16 0-1.891.45-3.59 1.347-5.064.899-1.507 2.118-2.66 3.69-3.526 1.572-.865 3.337-1.282 5.326-1.282 1.444 0 2.92.32 4.395.962 1.476.64 2.695 1.506 3.69 2.564L137.7 7.949a6.767 6.767 0 0 0-2.053-1.891zM157.913 1.346c1.604.866 2.855 2.02 3.753 3.526.899 1.506 1.348 3.205 1.348 5.096s-.45 3.622-1.348 5.128a9.632 9.632 0 0 1-3.753 3.59c-1.605.865-3.401 1.282-5.39 1.282-1.99 0-3.786-.417-5.39-1.282-1.605-.865-2.856-2.051-3.754-3.59-.898-1.538-1.348-3.237-1.348-5.128s.45-3.622 1.348-5.128a9.26 9.26 0 0 1 3.754-3.526c1.604-.833 3.4-1.25 5.39-1.25 1.989 0 3.785.449 5.39 1.282zm-7.347 4.583c-.642.417-1.123.962-1.508 1.667-.385.705-.546 1.507-.546 2.404s.193 1.699.546 2.404a4.297 4.297 0 0 0 1.508 1.699 3.56 3.56 0 0 0 2.02.609 3.39 3.39 0 0 0 1.99-.61c.61-.416 1.059-.961 1.412-1.698.352-.737.513-1.539.513-2.404s-.16-1.699-.513-2.404c-.353-.705-.803-1.282-1.412-1.667-.61-.384-1.251-.608-1.99-.608-.705 0-1.379.224-2.02.608zM178.414 1.667A8.49 8.49 0 0 1 182.039 5c.866 1.442 1.283 3.109 1.283 5.032s-.449 3.59-1.315 5.032c-.866 1.442-2.118 2.532-3.722 3.333-1.604.802-3.465 1.186-5.582 1.186h-8.278V.481h8.502c2.086 0 3.915.384 5.487 1.186zm-2.567 11.73c.674-.833 1.027-1.955 1.027-3.333 0-1.41-.385-2.532-1.091-3.397-.738-.866-1.733-1.282-2.952-1.282h-2.053v9.262h2.374c1.09 0 1.99-.416 2.695-1.25zM184.606.48h16.137v4.776h-9.817v2.34h8.919v4.776h-8.92v2.372H201v4.807h-16.394V.481z"/></g></g></svg>