<?xml version="1.0" encoding="utf-8"?>
<!-- Generator: Adobe Illustrator 27.0.1, SVG Export Plug-In . SVG Version: 6.00 Build 0)  -->
<svg version="1.1" id="Layer_1" xmlns="http://www.w3.org/2000/svg" xmlns:xlink="http://www.w3.org/1999/xlink" x="0px" y="0px"
	 viewBox="0 0 558.8 198.8" style="enable-background:new 0 0 558.8 198.8;" xml:space="preserve">
<style type="text/css">
	.st0{fill:#FFFFFF;}
	.st1{fill:#3ABFEF;}
</style>
<g>
	<path class="st0" d="M67.5,90c5.5-2.1,9.7-5,12.8-8.9c3-3.9,4.5-8.4,4.5-13.5c0-5.7-1.6-10.6-4.9-14.8c-3.3-4.2-7.6-6.9-13.1-8.1
		c4.7-1.4,8.4-3.8,11.1-7.4c2.8-3.5,4.1-7.6,4.1-12c0-4.6-1.5-8.6-4.4-12c-2.9-3.4-7.1-6.1-12.6-8C59.6,3.3,53.3,2.3,46,2.3H0v90.8
		h48.2C55.6,93.1,62,92.1,67.5,90z M30,24.3h14.4c2.1,0,3.7,0.6,5,1.7c1.2,1.2,1.9,2.7,1.9,4.6c0,2-0.6,3.6-1.9,4.8
		c-1.3,1.2-2.9,1.8-5,1.8H30V24.3z M30,71.1V57.3h14.4c2.8,0,5,0.6,6.7,1.8c1.7,1.2,2.5,2.8,2.5,4.8c0,2.2-0.8,3.9-2.5,5.2
		c-1.7,1.3-3.9,2-6.7,2H30z"/>
	<path class="st0" d="M124.4,2.3L86.1,93.2h30.8l4.7-12.8h34.1l4.5,12.8h32L155.3,2.3H124.4z M129.4,58.8l9.6-26.6l9.3,26.6H129.4z"
		/>
	<path class="st0" d="M227.5,69.6h11.3l10.9,23.6v0h33.9l-17.9-29.5c4.7-2.8,8.2-6.7,10.7-11.6c2.5-4.9,3.7-10.6,3.7-17.2
		c0-10.4-3.4-18.4-10.1-24c-6.7-5.7-16.3-8.5-28.6-8.5h-43.9v90.8h30.1V69.6z M227.5,25.1h13.9c3.3,0,5.8,0.9,7.6,2.8
		c1.8,1.9,2.7,4.5,2.7,7.8c0,3.5-0.9,6.2-2.7,8.1c-1.8,2-4.3,2.9-7.6,2.9h-13.9V25.1z"/>
	<polygon class="st0" points="352.4,49 316.5,2.3 291.4,2.3 291.4,93.2 318.7,93.2 318.7,46.8 354.5,93.2 379.6,93.2 379.6,2.3 
		352.4,2.3 	"/>
	<polygon class="st0" points="420.5,59.1 463,59.1 463,36.3 420.5,36.3 420.5,25.1 467.2,25.1 467.2,2.3 390.4,2.3 390.4,93.2 
		468.4,93.2 468.4,70.3 420.5,70.3 	"/>
	<path class="st0" d="M542.1,41.1c-4.3-1.8-9.7-3.6-16.1-5.4c-5.2-1.4-9-2.6-11.3-3.8c-2.4-1.1-3.6-2.7-3.6-4.8c0-2.7,1.9-4,5.6-4
		c3.8,0,8.7,1.1,14.8,3.2c6,2.2,11.5,4.7,16.5,7.5l10.9-22.9C553.6,7.6,547.4,5,540.4,3c-7-2-14.1-3-21.2-3
		c-7.8,0-14.6,1.2-20.5,3.6c-5.9,2.4-10.4,5.9-13.6,10.4c-3.2,4.5-4.8,9.8-4.8,15.9c0,6.2,1.5,11.2,4.7,14.9
		c3.1,3.7,6.8,6.5,11.1,8.2c4.3,1.8,9.6,3.5,16,5.1c5.3,1.3,9.1,2.5,11.6,3.7c2.5,1.2,3.7,2.8,3.7,4.9c0,1.7-0.6,3-1.9,3.8
		c-1.3,0.8-3.1,1.2-5.3,1.2c-4.7,0-10.5-1.4-17.4-4.2c-6.9-2.8-12.6-6.2-17.2-10.2l-11.1,22.7c6,4.6,13,8.2,21.2,10.8
		c8.2,2.6,16.3,3.9,24.3,3.9c7.1,0,13.5-1.1,19.3-3.2c5.8-2.1,10.4-5.5,13.8-9.9c3.4-4.4,5.1-9.9,5.1-16.5c0-6.4-1.6-11.6-4.8-15.5
		S546.4,42.9,542.1,41.1z"/>
	<path class="st1" d="M40,131.8c2.9-1.9,6.1-2.8,9.6-2.8c3.5,0,7.2,1.1,10.9,3.4c3.8,2.3,7,5.3,9.6,9l17.4-20.6
		c-4.7-5.1-10.5-9.2-17.5-12.2c-7-3.1-14-4.6-20.9-4.6c-9.4,0-17.9,2-25.3,6.1c-7.5,4.1-13.3,9.6-17.6,16.8S0,142,0,151
		c0,9.1,2.1,17.3,6.2,24.6c4.2,7.3,9.9,13,17.2,17.1c7.3,4.1,15.5,6.2,24.7,6.2c7,0,14.1-1.7,21.2-5c7.1-3.3,13.2-7.8,18.3-13.4
		l-17.4-18.5c-2.9,3.2-6.3,5.8-10,7.7c-3.8,2-7.3,2.9-10.6,2.9c-3.5,0-6.8-0.9-9.6-2.8c-2.9-1.9-5.1-4.5-6.7-7.8
		c-1.6-3.3-2.4-7.1-2.4-11.2c0-4.2,0.8-7.9,2.4-11.1C34.9,136.2,37.1,133.6,40,131.8z"/>
	<path class="st1" d="M166.5,110c-7.6-4.1-16.2-6.1-25.7-6.1c-9.5,0-18.1,2-25.7,6c-7.6,4-13.5,9.6-17.8,16.8
		c-4.3,7.2-6.4,15.3-6.4,24.4c0,9.1,2.1,17.2,6.4,24.5c4.3,7.3,10.2,12.9,17.8,17c7.6,4.1,16.2,6.2,25.7,6.2
		c9.5,0,18.1-2.1,25.7-6.2c7.6-4.1,13.5-9.8,17.8-17c4.3-7.3,6.4-15.4,6.4-24.5c0-9-2.1-17.1-6.4-24.2
		C180.1,119.7,174.1,114.1,166.5,110z M157.5,162.8c-1.6,3.5-3.9,6.2-6.7,8.1c-2.9,1.9-6,2.9-9.5,2.9c-3.5,0-6.7-1-9.7-3
		c-3-2-5.4-4.7-7.1-8.1c-1.8-3.4-2.7-7.2-2.7-11.5c0-4.2,0.9-8,2.7-11.4s4.1-6,7.1-8c3-1.9,6.2-2.9,9.7-2.9c3.4,0,6.6,0.9,9.5,2.8
		c2.8,1.9,5.1,4.6,6.7,8c1.6,3.4,2.5,7.2,2.5,11.5C159.9,155.5,159.1,159.3,157.5,162.8z"/>
	<path class="st1" d="M264.1,111.5c-7.4-3.7-16.1-5.6-26-5.6h-40.6v90.8h39.4c10.1,0,19-1.9,26.6-5.6c7.6-3.7,13.5-9,17.7-15.9
		c4.1-6.8,6.2-14.8,6.2-24c0-9.1-2-17-6.1-23.9C277.2,120.5,271.5,115.2,264.1,111.5z M251.8,167.5c-3.2,4-7.6,6-13,6h-11.3v-44.2
		h9.8c5.9,0,10.6,2,14.1,6.1s5.2,9.5,5.2,16.2C256.7,158.2,255,163.5,251.8,167.5z"/>
	<polygon class="st1" points="321.4,162.7 364,162.7 364,139.9 321.4,139.9 321.4,128.7 368.2,128.7 368.2,105.9 291.4,105.9 
		291.4,196.7 369.4,196.7 369.4,173.9 321.4,173.9 	"/>
</g>
</svg>
