<svg version="1.1" id="Layer_1" xmlns="http://www.w3.org/2000/svg" x="0" y="0" viewBox="0 0 558.8 198.8" style="enable-background:new 0 0 558.8 198.8" xml:space="preserve"><style>.st0{fill:#fff}.st1{fill:#3abfef}</style><path class="st0" d="M67.5 90c5.5-2.1 9.7-5 12.8-8.9 3-3.9 4.5-8.4 4.5-13.5 0-5.7-1.6-10.6-4.9-14.8-3.3-4.2-7.6-6.9-13.1-8.1 4.7-1.4 8.4-3.8 11.1-7.4 2.8-3.5 4.1-7.6 4.1-12 0-4.6-1.5-8.6-4.4-12-2.9-3.4-7.1-6.1-12.6-8-5.4-2-11.7-3-19-3H0v90.8h48.2c7.4 0 13.8-1 19.3-3.1zM30 24.3h14.4c2.1 0 3.7.6 5 1.7 1.2 1.2 1.9 2.7 1.9 4.6 0 2-.6 3.6-1.9 4.8-1.3 1.2-2.9 1.8-5 1.8H30V24.3zm0 46.8V57.3h14.4c2.8 0 5 .6 6.7 1.8 1.7 1.2 2.5 2.8 2.5 4.8 0 2.2-.8 3.9-2.5 5.2-1.7 1.3-3.9 2-6.7 2H30zM124.4 2.3 86.1 93.2h30.8l4.7-12.8h34.1l4.5 12.8h32L155.3 2.3h-30.9zm5 56.5 9.6-26.6 9.3 26.6h-18.9zM227.5 69.6h11.3l10.9 23.6h33.9l-17.9-29.5c4.7-2.8 8.2-6.7 10.7-11.6 2.5-4.9 3.7-10.6 3.7-17.2 0-10.4-3.4-18.4-10.1-24-6.7-5.7-16.3-8.5-28.6-8.5h-43.9v90.8h30.1V69.6zm0-44.5h13.9c3.3 0 5.8.9 7.6 2.8 1.8 1.9 2.7 4.5 2.7 7.8 0 3.5-.9 6.2-2.7 8.1-1.8 2-4.3 2.9-7.6 2.9h-13.9V25.1zM352.4 49 316.5 2.3h-25.1v90.9h27.3V46.8l35.8 46.4h25.1V2.3h-27.2zM420.5 59.1H463V36.3h-42.5V25.1h46.7V2.3h-76.8v90.9h78V70.3h-47.9zM542.1 41.1c-4.3-1.8-9.7-3.6-16.1-5.4-5.2-1.4-9-2.6-11.3-3.8-2.4-1.1-3.6-2.7-3.6-4.8 0-2.7 1.9-4 5.6-4 3.8 0 8.7 1.1 14.8 3.2 6 2.2 11.5 4.7 16.5 7.5l10.9-22.9C553.6 7.6 547.4 5 540.4 3s-14.1-3-21.2-3c-7.8 0-14.6 1.2-20.5 3.6-5.9 2.4-10.4 5.9-13.6 10.4-3.2 4.5-4.8 9.8-4.8 15.9 0 6.2 1.5 11.2 4.7 14.9 3.1 3.7 6.8 6.5 11.1 8.2 4.3 1.8 9.6 3.5 16 5.1 5.3 1.3 9.1 2.5 11.6 3.7 2.5 1.2 3.7 2.8 3.7 4.9 0 1.7-.6 3-1.9 3.8-1.3.8-3.1 1.2-5.3 1.2-4.7 0-10.5-1.4-17.4-4.2-6.9-2.8-12.6-6.2-17.2-10.2L474.5 80c6 4.6 13 8.2 21.2 10.8 8.2 2.6 16.3 3.9 24.3 3.9 7.1 0 13.5-1.1 19.3-3.2 5.8-2.1 10.4-5.5 13.8-9.9 3.4-4.4 5.1-9.9 5.1-16.5 0-6.4-1.6-11.6-4.8-15.5s-7-6.7-11.3-8.5z"/><path class="st1" d="M40 131.8c2.9-1.9 6.1-2.8 9.6-2.8s7.2 1.1 10.9 3.4c3.8 2.3 7 5.3 9.6 9l17.4-20.6c-4.7-5.1-10.5-9.2-17.5-12.2-7-3.1-14-4.6-20.9-4.6-9.4 0-17.9 2-25.3 6.1-7.5 4.1-13.3 9.6-17.6 16.8S0 142 0 151c0 9.1 2.1 17.3 6.2 24.6 4.2 7.3 9.9 13 17.2 17.1 7.3 4.1 15.5 6.2 24.7 6.2 7 0 14.1-1.7 21.2-5s13.2-7.8 18.3-13.4L70.2 162c-2.9 3.2-6.3 5.8-10 7.7-3.8 2-7.3 2.9-10.6 2.9-3.5 0-6.8-.9-9.6-2.8-2.9-1.9-5.1-4.5-6.7-7.8-1.6-3.3-2.4-7.1-2.4-11.2 0-4.2.8-7.9 2.4-11.1 1.6-3.5 3.8-6.1 6.7-7.9zM166.5 110c-7.6-4.1-16.2-6.1-25.7-6.1s-18.1 2-25.7 6c-7.6 4-13.5 9.6-17.8 16.8-4.3 7.2-6.4 15.3-6.4 24.4 0 9.1 2.1 17.2 6.4 24.5 4.3 7.3 10.2 12.9 17.8 17 7.6 4.1 16.2 6.2 25.7 6.2s18.1-2.1 25.7-6.2c7.6-4.1 13.5-9.8 17.8-17 4.3-7.3 6.4-15.4 6.4-24.5 0-9-2.1-17.1-6.4-24.2-4.2-7.2-10.2-12.8-17.8-16.9zm-9 52.8c-1.6 3.5-3.9 6.2-6.7 8.1-2.9 1.9-6 2.9-9.5 2.9s-6.7-1-9.7-3c-3-2-5.4-4.7-7.1-8.1-1.8-3.4-2.7-7.2-2.7-11.5 0-4.2.9-8 2.7-11.4s4.1-6 7.1-8c3-1.9 6.2-2.9 9.7-2.9 3.4 0 6.6.9 9.5 2.8 2.8 1.9 5.1 4.6 6.7 8 1.6 3.4 2.5 7.2 2.5 11.5-.1 4.3-.9 8.1-2.5 11.6zM264.1 111.5c-7.4-3.7-16.1-5.6-26-5.6h-40.6v90.8h39.4c10.1 0 19-1.9 26.6-5.6 7.6-3.7 13.5-9 17.7-15.9 4.1-6.8 6.2-14.8 6.2-24 0-9.1-2-17-6.1-23.9-4.1-6.8-9.8-12.1-17.2-15.8zm-12.3 56c-3.2 4-7.6 6-13 6h-11.3v-44.2h9.8c5.9 0 10.6 2 14.1 6.1s5.2 9.5 5.2 16.2c.1 6.6-1.6 11.9-4.8 15.9zM321.4 162.7H364v-22.8h-42.6v-11.2h46.8v-22.8h-76.8v90.8h78v-22.8h-48z"/></svg>