<?xml version="1.0" encoding="UTF-8"?>
<svg width="201px" height="20px" viewBox="0 0 201 20" version="1.1" xmlns="http://www.w3.org/2000/svg" xmlns:xlink="http://www.w3.org/1999/xlink">
    <title>BARNES_CODE-LOGO_FOOTER</title>
    <g id="Page-1" stroke="none" stroke-width="1" fill="none" fill-rule="evenodd">
        <g id="HOMEPAGE_FINAL" transform="translate(-390.000000, -5953.000000)" fill-rule="nonzero">
            <g id="BARNES_CODE-LOGO_FOOTER" transform="translate(390.000000, 5953.000000)">
                <path d="M13.6673583,1.08974359 C14.8223464,1.47435897 15.6885874,2.05128205 16.2981644,2.78846154 C16.9077414,3.52564103 17.2285714,4.35897436 17.2285714,5.32051282 C17.2285714,6.25 16.9398244,7.11538462 16.3623304,7.8525641 C15.7848364,8.58974359 15.0148444,9.1025641 14.0202713,9.39102564 C15.1752594,9.6474359 16.0735834,10.224359 16.7794094,11.0897436 C17.4531524,11.9551282 17.8060654,13.0128205 17.8060654,14.1987179 C17.8060654,15.2564103 17.4852354,16.2179487 16.8435754,17.0192308 C16.2019154,17.8205128 15.3035914,18.4615385 14.1486034,18.9102564 C12.9936153,19.3589744 11.6461293,19.5512821 10.1061453,19.5512821 L0,19.5512821 L0,0.480769231 L9.65698324,0.480769231 C11.1969673,0.480769231 12.5123703,0.673076923 13.6673583,1.08974359 Z M10.3628093,7.43589744 C10.6194733,7.17948718 10.7478053,6.85897436 10.7478053,6.44230769 C10.7478053,6.05769231 10.6194733,5.73717949 10.3628093,5.48076923 C10.1061453,5.22435897 9.75323224,5.12820513 9.30407023,5.12820513 L6.28826816,5.12820513 L6.28826816,7.8525641 L9.30407023,7.8525641 C9.75323224,7.82051282 10.1061453,7.69230769 10.3628093,7.43589744 Z M10.7157223,14.5192308 C11.0686353,14.2307692 11.2290503,13.8782051 11.2290503,13.4294872 C11.2290503,13.0128205 11.0686353,12.6923077 10.7157223,12.4358974 C10.3628093,12.1794872 9.88156425,12.0512821 9.30407023,12.0512821 L6.28826816,12.0512821 L6.28826816,14.9679487 L9.30407023,14.9679487 C9.88156425,14.9358974 10.3628093,14.775641 10.7157223,14.5192308 Z" id="Shape" fill="#FFFFFF"></path>
                <path d="M33.6550678,19.5512821 L32.6925778,16.8589744 L25.5380686,16.8589744 L24.5755786,19.5512821 L18.0948125,19.5512821 L26.1476457,0.480769231 L32.6284118,0.480769231 L40.392498,19.5512821 L33.6550678,19.5512821 Z M27.1743017,12.3397436 L31.1525938,12.3397436 L29.1955307,6.76282051 L27.1743017,12.3397436 Z" id="Shape" fill="#FFFFFF"></path>
                <path d="M52.4557063,19.5512821 L50.1778132,14.6153846 L47.8036712,14.6153846 L47.8036712,19.5512821 L41.48332,19.5512821 L41.48332,0.480769231 L50.6911413,0.480769231 C53.2898643,0.480769231 55.2790104,1.05769231 56.7227454,2.27564103 C58.1343974,3.46153846 58.8402235,5.12820513 58.8402235,7.30769231 C58.8402235,8.68589744 58.5835595,9.87179487 58.0702314,10.8974359 C57.5569034,11.9230769 56.8189944,12.724359 55.8244214,13.3333333 L59.5781325,19.5512821 L52.4557063,19.5512821 Z M47.7715882,9.80769231 L50.6911413,9.80769231 C51.3648843,9.80769231 51.9102953,9.61538462 52.2952913,9.19871795 C52.6802873,8.78205128 52.8407023,8.23717949 52.8407023,7.5 C52.8407023,6.79487179 52.6482043,6.25 52.2952913,5.86538462 C51.9102953,5.48076923 51.3969673,5.28846154 50.6911413,5.28846154 L47.7715882,5.28846154 L47.7715882,9.80769231 Z" id="Shape" fill="#FFFFFF"></path>
                <polygon id="Path" fill="#FFFFFF" points="74.0475658 0.480769231 79.75834 0.480769231 79.75834 19.5512821 74.4646449 19.5512821 66.9572227 9.80769231 66.9572227 19.5512821 61.2143655 19.5512821 61.2143655 0.480769231 66.5080607 0.480769231 74.0475658 10.2564103"></polygon>
                <polygon id="Path" fill="#FFFFFF" points="82.4853951 0.480769231 98.6231445 0.480769231 98.6231445 5.25641026 88.8057462 5.25641026 88.8057462 7.59615385 97.7248204 7.59615385 97.7248204 12.3717949 88.8057462 12.3717949 88.8057462 14.7435897 98.8798085 14.7435897 98.8798085 19.5512821 82.4853951 19.5512821"></polygon>
                <path d="M112.098005,5.51282051 C110.814685,5.06410256 109.788029,4.83974359 108.985954,4.83974359 C108.215962,4.83974359 107.830966,5.12820513 107.830966,5.67307692 C107.830966,6.12179487 108.08763,6.44230769 108.568875,6.66666667 C109.082203,6.89102564 109.852195,7.17948718 110.943017,7.46794872 C112.290503,7.8525641 113.445491,8.23717949 114.343815,8.62179487 C115.242139,9.00641026 116.012131,9.61538462 116.685874,10.4166667 C117.359617,11.25 117.680447,12.3076923 117.680447,13.6538462 C117.680447,15.0320513 117.327534,16.1858974 116.621708,17.1153846 C115.915882,18.0448718 114.953392,18.75 113.734238,19.1987179 C112.515084,19.6474359 111.167598,19.8717949 109.69178,19.8717949 C107.991381,19.8717949 106.290982,19.5833333 104.590583,19.0384615 C102.890184,18.4935897 101.382283,17.724359 100.131045,16.7628205 L102.473105,12.0192308 C103.435595,12.8525641 104.654749,13.5576923 106.098484,14.1666667 C107.542219,14.7435897 108.761373,15.0641026 109.755946,15.0641026 C110.237191,15.0641026 110.590104,14.9679487 110.878851,14.8076923 C111.167598,14.6474359 111.29593,14.3589744 111.29593,14.0064103 C111.29593,13.5576923 111.039266,13.2371795 110.525938,12.9807692 C110.01261,12.724359 109.210535,12.4679487 108.08763,12.2115385 C106.740144,11.8589744 105.617239,11.5064103 104.718915,11.1538462 C103.820591,10.7692308 103.050599,10.1923077 102.376856,9.42307692 C101.735196,8.65384615 101.414366,7.59615385 101.414366,6.28205128 C101.414366,5 101.735196,3.91025641 102.408939,2.94871795 C103.082682,1.98717949 104.045172,1.28205128 105.264326,0.769230769 C106.48348,0.256410256 107.927215,0 109.563448,0 C111.039266,0 112.547167,0.192307692 114.022985,0.608974359 C115.498803,1.02564103 116.782123,1.57051282 117.872945,2.27564103 L115.595052,7.08333333 C114.536313,6.50641026 113.381325,5.96153846 112.098005,5.51282051 Z" id="Path" fill="#FFFFFF"></path>
                <g id="Group" transform="translate(122.909976, 0.064103)" fill="#3ABFEF">
                    <path d="M12.7369513,5.99358974 C11.9348763,5.51282051 11.1969673,5.28846154 10.4269753,5.28846154 C9.68906624,5.28846154 9.01532322,5.48076923 8.40574621,5.86538462 C7.79616919,6.25 7.31492418,6.79487179 6.99409417,7.46794872 C6.67326417,8.14102564 6.48076616,8.94230769 6.48076616,9.80769231 C6.48076616,10.6730769 6.64118117,11.474359 6.99409417,12.1474359 C7.31492418,12.8525641 7.79616919,13.3974359 8.40574621,13.7820513 C9.01532322,14.1666667 9.68906624,14.3910256 10.4269753,14.3910256 C11.1328013,14.3910256 11.8707103,14.1987179 12.6407023,13.7820513 C13.4427773,13.3653846 14.1165204,12.8205128 14.7581804,12.1794872 L18.4156425,16.0576923 C17.3569034,17.2435897 16.0735834,18.1730769 14.5656824,18.8782051 C13.0577813,19.5833333 11.5819633,19.9358974 10.1061453,19.9358974 C8.1811652,19.9358974 6.44868316,19.5192308 4.90869912,18.6538462 C3.36871508,17.7884615 2.18164405,16.6025641 1.31540303,15.0641026 C0.449162011,13.525641 0,11.8269231 0,9.90384615 C0,8.01282051 0.449162011,6.31410256 1.34748603,4.83974359 C2.24581006,3.33333333 3.46496409,2.17948718 5.03703113,1.31410256 C6.60909816,0.448717949 8.37366321,0.0320512821 10.3628093,0.0320512821 C11.8065443,0.0320512821 13.2823623,0.352564103 14.7581804,0.993589744 C16.2339984,1.63461538 17.4531524,2.5 18.4477255,3.55769231 L14.7902634,7.88461538 C14.2127694,7.08333333 13.5390263,6.47435897 12.7369513,5.99358974 Z" id="Path"></path>
                    <path d="M35.0025539,1.28205128 C36.6067039,2.1474359 37.8579409,3.30128205 38.756265,4.80769231 C39.654589,6.31410256 40.103751,8.01282051 40.103751,9.90384615 C40.103751,11.7948718 39.654589,13.525641 38.756265,15.0320513 C37.8579409,16.5384615 36.6067039,17.7564103 35.0025539,18.6217949 C33.3984038,19.4871795 31.6017558,19.9038462 29.6126097,19.9038462 C27.6234637,19.9038462 25.8268156,19.4871795 24.2226656,18.6217949 C22.6185156,17.7564103 21.3672785,16.5705128 20.4689545,15.0320513 C19.5706305,13.4935897 19.1214685,11.7948718 19.1214685,9.90384615 C19.1214685,8.01282051 19.5706305,6.28205128 20.4689545,4.77564103 C21.3672785,3.26923077 22.6185156,2.08333333 24.2226656,1.25 C25.8268156,0.416666667 27.6234637,0 29.6126097,0 C31.6017558,0 33.3984038,0.448717949 35.0025539,1.28205128 Z M27.6555467,5.86538462 C27.0138867,6.28205128 26.5326417,6.82692308 26.1476457,7.53205128 C25.7626496,8.23717949 25.6022346,9.03846154 25.6022346,9.93589744 C25.6022346,10.8333333 25.7947326,11.6346154 26.1476457,12.3397436 C26.5005587,13.0448718 27.0138867,13.6217949 27.6555467,14.0384615 C28.2651237,14.4551282 28.9709497,14.6474359 29.6767757,14.6474359 C30.4146848,14.6474359 31.0563448,14.4551282 31.6659218,14.0384615 C32.2754988,13.6217949 32.7246608,13.0769231 33.0775738,12.3397436 C33.4304868,11.6025641 33.5909018,10.8012821 33.5909018,9.93589744 C33.5909018,9.07051282 33.4304868,8.23717949 33.0775738,7.53205128 C32.7246608,6.82692308 32.2754988,6.25 31.6659218,5.86538462 C31.0563448,5.48076923 30.4146848,5.25641026 29.6767757,5.25641026 C28.9709497,5.25641026 28.2972067,5.48076923 27.6555467,5.86538462 Z" id="Shape"></path>
                    <path d="M55.5035914,1.6025641 C57.0756584,2.37179487 58.2627294,3.49358974 59.1289705,4.93589744 C59.9952115,6.37820513 60.4122905,8.04487179 60.4122905,9.96794872 C60.4122905,11.8910256 59.9631285,13.5576923 59.0968875,15 C58.2306464,16.4423077 56.9794094,17.5320513 55.3752594,18.3333333 C53.7711093,19.1346154 51.9102953,19.5192308 49.7928172,19.5192308 L41.515403,19.5192308 L41.515403,0.416666667 L50.0173982,0.416666667 C52.1027933,0.416666667 53.9315243,0.801282051 55.5035914,1.6025641 Z M52.9369513,13.3333333 C53.6106943,12.5 53.9636073,11.3782051 53.9636073,10 C53.9636073,8.58974359 53.5786113,7.46794872 52.8727853,6.6025641 C52.1348763,5.73717949 51.1403033,5.32051282 49.9211492,5.32051282 L47.8678372,5.32051282 L47.8678372,14.5833333 L50.2419792,14.5833333 C51.3328013,14.5833333 52.2311253,14.1666667 52.9369513,13.3333333 Z" id="Shape"></path>
                    <polygon id="Path" points="61.6956105 0.416666667 77.8333599 0.416666667 77.8333599 5.19230769 68.0159617 5.19230769 68.0159617 7.53205128 76.9350359 7.53205128 76.9350359 12.3076923 68.0159617 12.3076923 68.0159617 14.6794872 78.0900239 14.6794872 78.0900239 19.4871795 61.6956105 19.4871795 61.6956105 0.416666667"></polygon>
                </g>
            </g>
        </g>
    </g>
</svg>