<svg version="1.1" id="Layer_1" xmlns="http://www.w3.org/2000/svg" x="0" y="0" viewBox="0 0 244.2 134.6" style="enable-background:new 0 0 244.2 134.6" xml:space="preserve"><style>.st0{fill:#006694}.st1{fill-rule:evenodd;clip-rule:evenodd;fill:#3abeee}.st2{fill:#f3f3f3}</style><g id="Page-1_00000145761755769130346500000002069336459513679545_"><g id="BARNES_HOME-EXTENDED-v4_00000149347738672503049460000001561364332074448313_" transform="translate(-981.4 -5167.4)"><g id="DELIVER" transform="translate(968 5144)"><g id="Group-6" transform="translate(15 25)"><g id="Group-21" transform="translate(18.226)"><path class="st0" d="M45.2 133c-20.3 0-36.8-16.5-36.8-36.7 0-20.2 16.5-36.7 36.8-36.7C65.5 59.6 82 76 82 96.3c0 20.2-16.5 36.7-36.8 36.7zm0-70.2c-18.5 0-33.6 15-33.6 33.5s15.1 33.5 33.6 33.5 33.6-15 33.6-33.5-15-33.5-33.6-33.5z" id="Stroke-1_00000004507057010593341410000004555206105993761460_"/><path class="st1" d="M33.5 96.3c0-6.5 5.3-11.7 11.7-11.7 6.5 0 11.7 5.2 11.7 11.7 0 6.5-5.3 11.7-11.7 11.7-6.5 0-11.7-5.3-11.7-11.7" id="Fill-3"/><path class="st0" d="M45.2 109.6c-7.3 0-13.3-6-13.3-13.3S37.9 83 45.2 83c7.4 0 13.3 6 13.3 13.3s-5.9 13.3-13.3 13.3zm0-23.4c-5.6 0-10.1 4.5-10.1 10.1s4.5 10.1 10.1 10.1 10.1-4.5 10.1-10.1-4.5-10.1-10.1-10.1z" id="Stroke-5_00000165912882477966547860000001671871135780220080_"/><path class="st0" d="M177.6 133c-20.3 0-36.8-16.5-36.8-36.7 0-20.2 16.5-36.7 36.8-36.7s36.8 16.5 36.8 36.7c0 20.2-16.5 36.7-36.8 36.7zm0-70.2c-18.5 0-33.6 15-33.6 33.5s15.1 33.5 33.6 33.5 33.6-15 33.6-33.5-15.1-33.5-33.6-33.5z" id="Stroke-7_00000023271878746555317200000012447336754573600685_"/><path class="st1" d="M165.8 96.3c0-6.5 5.3-11.7 11.7-11.7 6.5 0 11.7 5.2 11.7 11.7 0 6.5-5.3 11.7-11.7 11.7-6.4 0-11.7-5.3-11.7-11.7" id="Fill-9_00000036223471065419804360000014093115000738369668_"/><path class="st0" d="M177.6 109.6c-7.3 0-13.3-6-13.3-13.3s6-13.3 13.3-13.3c7.4 0 13.3 6 13.3 13.3s-6 13.3-13.3 13.3zm0-23.4c-5.6 0-10.1 4.5-10.1 10.1s4.5 10.1 10.1 10.1 10.1-4.5 10.1-10.1-4.6-10.1-10.1-10.1z" id="Stroke-11_00000149355397921367898460000012831572594400969636_"/><path class="st0" d="M109.9 109.2c-7.4 0-13.4-6-13.4-13.4s6-13.4 13.4-13.4 13.4 6 13.4 13.4c.1 7.4-6 13.4-13.4 13.4zm0-23.4c-5.5 0-10 4.5-10 10s4.5 10 10 10 10-4.5 10-10c.1-5.5-4.4-10-10-10z" id="Stroke-13"/><path class="st0" d="M110.5 98.2H45.1c-.6 0-1.1-.3-1.4-.8-.3-.5-.3-1.1 0-1.6L78 41.4 70 27c-.4-.8-.2-1.7.6-2.2.8-.4 1.7-.2 2.2.6L81 40.3h62.7c.6 0 1.1.3 1.4.8.3.5.3 1.1 0 1.6l-33 54.4c-.1.1-.1.2-.2.3-.3.5-.8.8-1.4.8zM48 95h59.8L79.7 44.6 48 95zm34.8-51.5 27.8 50 30.3-50H82.8z" id="Stroke-15_00000044169919352482762590000001887984926393879998_"/><path class="st0" d="M90.3 27.8H62.8c-.9 0-1.6-.7-1.6-1.6s.7-1.6 1.6-1.6h27.5c.9 0 1.6.7 1.6 1.6s-.8 1.6-1.6 1.6z" id="Stroke-17_00000008845295402693095830000013030051590206774415_"/><path class="st0" d="M178 98.3c-.4 0-.8-.1-1.1-.4-22.6-19.9-34.2-54.1-34.7-55.5L138.4 31c-.2-.6 0-1.2.4-1.6l8.1-8.1c.3-.3.7-.5 1.1-.5h15.9c.2 0 2.9 0 5.2 2.2 2.1 2 3.1 5.1 3.1 9.2 0 2.6-.9 4.7-2.6 6.3-3.6 3.1-9.5 2.4-9.8 2.4-.9-.1-1.5-.9-1.4-1.8.1-.9.9-1.5 1.8-1.4 0 0 4.8.6 7.2-1.6 1-.9 1.5-2.2 1.5-3.8 0-3.5-.9-6-2.6-7.3-1.2-.9-2.5-1-2.5-1h-15.2l-6.9 6.9 3.5 10.5c.1.3 11.9 34.8 33.8 54.1.7.6.7 1.6.1 2.3-.2.3-.7.5-1.1.5z" id="Stroke-19_00000036957289909214822610000001067610569361275041_"/></g><path class="st2" d="M25.9 75.5H10c-.9 0-1.6-.7-1.6-1.6s.7-1.6 1.6-1.6h15.9c.9 0 1.6.7 1.6 1.6s-.7 1.6-1.6 1.6z" id="Path-5-Copy_00000052818829238838734030000015135959646473114247_"/><path class="st2" d="M22.7 83.5h-7.9c-.9 0-1.6-.7-1.6-1.6s.7-1.6 1.6-1.6h7.9c.9 0 1.6.7 1.6 1.6s-.7 1.6-1.6 1.6z" id="Path-5-Copy-2_00000110457337567632353800000010234537483220235660_"/><path class="st2" d="M157.2 115.4h-15.9c-.9 0-1.6-.7-1.6-1.6s.7-1.6 1.6-1.6h15.9c.9 0 1.6.7 1.6 1.6s-.7 1.6-1.6 1.6z" id="Path-5-Copy_00000145038486413922416610000016100837423132968117_"/><path class="st2" d="M162 123.4h-7.9c-.9 0-1.6-.7-1.6-1.6s.7-1.6 1.6-1.6h7.9c.9 0 1.6.7 1.6 1.6s-.7 1.6-1.6 1.6z" id="Path-5-Copy-2_00000031200033880495826790000003651804951941673378_"/></g></g></g></g></svg>