<?xml version="1.0" encoding="UTF-8"?>
<svg width="250px" height="137px" viewBox="0 0 250 137" version="1.1" xmlns="http://www.w3.org/2000/svg" xmlns:xlink="http://www.w3.org/1999/xlink">
    <title>ITERATE</title>
    <g id="Page-1" stroke="none" stroke-width="1" fill="none" fill-rule="evenodd">
        <g id="BARNES_HOME-EXTENDED-v4-Copy" transform="translate(-1266, -5144)">
            <g id="ITERATE" transform="translate(1266, 5144)">
                <g id="Group-23" transform="translate(18.1935, 3)">
                    <path d="M62.2595895,26.1388464 C62.2595895,26.1388464 69.1563795,42.152486 89.019806,42.7042118 C108.882433,43.2567371 110.813567,21.997705 110.813567,21.997705 L62.2595895,26.1388464 Z" id="Stroke-1" stroke="#006694" stroke-width="3.2" stroke-linecap="round" stroke-linejoin="round"></path>
                    <polyline id="Stroke-3" stroke="#006694" stroke-width="3.2" stroke-linecap="round" stroke-linejoin="round" points="148.926161 12.4598062 144.352005 0.399401458 117.700449 0.399401458"></polyline>
                    <line x1="136.361971" y1="0.399801259" x2="117.70021" y2="0.399801259" id="Stroke-5" stroke="#006694" stroke-width="4.8" stroke-linecap="round" stroke-linejoin="round"></line>
                    <path d="M206.212264,46.4206843 L206.339302,42.4066797 C186.988021,27.0894938 158.073756,35.3477886 158.073756,35.3477886 L148.926241,12.4599662 L117.323411,22.1599443 C117.323411,22.1599443 114.860157,49.2728665 89.5277171,48.5692163 C64.1944779,47.8647665 55.3985138,27.4421185 55.3985138,27.4421185 L38.1581367,27.4421185 L35.8275139,33.2520304 C14.3653297,33.6038555 5.78908501,41.1744922 5.78908501,41.1744922 L8.54955878,45.3364233 C16.4922128,41.1353117 25.5462472,38.7564942 35.1547732,38.7564942 C47.0379936,38.7564942 58.0695019,42.3986836 67.2034342,48.6227896 L32.6092249,89.9934243 C30.7284275,92.2698927 31.0512151,95.6714018 33.3251104,97.5536661 C35.5998048,99.4359305 38.6862621,98.0414237 40.8794605,96.8364227 L85.6686467,69.3596814 C89.8145507,77.2701491 92.1715399,86.2656774 92.1715399,95.8177291 L120.63518,95.8177291 C120.63518,74.0221636 132.849178,55.087576 150.796652,45.4779529 C150.86856,45.8985439 150.985211,46.3175356 151.163384,46.7245333 L172.763791,96.1975403 C173.947879,98.9033952 177.127817,100.146777 179.831563,98.9617662 C182.53451,97.7767552 183.776923,94.5935376 182.592836,91.8884823 L160.993227,42.4154753 C160.835029,42.0548546 160.640078,41.7230195 160.417163,41.4167718 C165.855017,39.6928287 171.643622,38.7564942 177.651148,38.7564942 C188.058654,38.7564942 197.814192,41.547107 206.212264,46.4206843 Z" id="Stroke-7" stroke="#006694" stroke-width="3.2" stroke-linecap="round" stroke-linejoin="round"></path>
                    <path d="M46.8633367,95.8174892 C46.8633367,102.288672 41.621233,107.534865 35.1550928,107.534865 C28.6881537,107.534865 23.44605,102.288672 23.44605,95.8174892 C23.44605,89.346306 28.6881537,84.1001139 35.1550928,84.1001139 C35.9085304,84.1001139 36.6443904,84.1776753 37.358678,84.3144074 L53.0570249,65.5405398 C47.8125242,62.4276872 41.6939401,60.6349784 35.1550928,60.6349784 C15.7390949,60.6349784 0,76.387148 0,95.8174892 C0,115.24783 15.7390949,131 35.1550928,131 C54.5702918,131 70.3093867,115.24783 70.3093867,95.8174892 C70.3093867,90.4577535 69.1069227,85.3810771 66.964859,80.8345372 L46.5932817,93.331525 C46.7666602,94.1335263 46.8633367,94.9635137 46.8633367,95.8174892" id="Fill-9" fill="#3ABEEE"></path>
                    <path d="M46.8633367,95.8174892 C46.8633367,102.288672 41.621233,107.534865 35.1550928,107.534865 C28.6881537,107.534865 23.44605,102.288672 23.44605,95.8174892 C23.44605,89.346306 28.6881537,84.1001139 35.1550928,84.1001139 C35.9085304,84.1001139 36.6443904,84.1776753 37.358678,84.3144074 L53.0570249,65.5405398 C47.8125242,62.4276872 41.6939401,60.6349784 35.1550928,60.6349784 C15.7390949,60.6349784 0,76.387148 0,95.8174892 C0,115.24783 15.7390949,131 35.1550928,131 C54.5702918,131 70.3093867,115.24783 70.3093867,95.8174892 C70.3093867,90.4577535 69.1069227,85.3810771 66.964859,80.8345372 L46.5932817,93.331525 C46.7666602,94.1335263 46.8633367,94.9635137 46.8633367,95.8174892 Z" id="Stroke-11" stroke="#006694" stroke-width="3.2" stroke-linecap="round" stroke-linejoin="round"></path>
                    <path d="M177.651388,60.6352183 C174.80782,60.6352183 172.046547,60.9822458 169.39873,61.619529 L179.294888,84.2282902 C184.981225,85.0302915 189.359632,89.9054681 189.359632,95.8177291 C189.359632,102.288912 184.117528,107.535104 177.651388,107.535104 C171.185248,107.535104 165.943144,102.288912 165.943144,95.8177291 C165.943144,92.7072753 167.162386,89.8870772 169.138263,87.7897198 L159.469813,65.7014998 C149.296409,71.8656356 142.496295,83.0464777 142.496295,95.8177291 C142.496295,115.24807 158.236189,130.99944 177.651388,130.99944 C197.066587,130.99944 212.806481,115.24807 212.806481,95.8177291 C212.806481,76.3865883 197.066587,60.6352183 177.651388,60.6352183" id="Fill-13" fill="#3ABEEE"></path>
                    <path d="M177.651388,60.6352183 C174.80782,60.6352183 172.046547,60.9822458 169.39873,61.619529 L179.294888,84.2282902 C184.981225,85.0302915 189.359632,89.9054681 189.359632,95.8177291 C189.359632,102.288912 184.117528,107.535104 177.651388,107.535104 C171.185248,107.535104 165.943144,102.288912 165.943144,95.8177291 C165.943144,92.7072753 167.162386,89.8870772 169.138263,87.7897198 L159.469813,65.7014998 C149.296409,71.8656356 142.496295,83.0464777 142.496295,95.8177291 C142.496295,115.24807 158.236189,130.99944 177.651388,130.99944 C197.066587,130.99944 212.806481,115.24807 212.806481,95.8177291 C212.806481,76.3865883 197.066587,60.6352183 177.651388,60.6352183 Z" id="Stroke-15" stroke="#006694" stroke-width="3.2" stroke-linecap="round" stroke-linejoin="round"></path>
                    <line x1="126.056335" y1="70.3832525" x2="98.8766548" y2="70.3832525" id="Stroke-17" stroke="#006694" stroke-width="3.2" stroke-linecap="round" stroke-linejoin="round"></line>
                    <line x1="121.570386" y1="82.5312938" x2="106.5288" y2="82.5312938" id="Stroke-19" stroke="#006694" stroke-width="3.2" stroke-linecap="round" stroke-linejoin="round"></line>
                    <polyline id="Stroke-21" stroke="#006694" stroke-width="3.2" stroke-linecap="round" stroke-linejoin="round" points="148.926161 12.4598062 157.985789 12.4598062 163.791173 28.1288172 155.611222 28.1288172"></polyline>
                </g>
                <rect id="Rectangle" x="0" y="0" width="250" height="137"></rect>
            </g>
        </g>
    </g>
</svg>