<svg version="1.1" id="Layer_1" xmlns="http://www.w3.org/2000/svg" x="0" y="0" viewBox="0 0 244.2 134.6" style="enable-background:new 0 0 244.2 134.6" xml:space="preserve"><style>.st0{fill:#006694}.st1{fill-rule:evenodd;clip-rule:evenodd;fill:#3abeee}.st2{fill:#f3f3f3}</style><g id="Page-1_00000073721191428295996780000002773827382550113438_"><g id="BARNES_HOME-EXTENDED-v4_00000024713039359098128420000000578461797751628735_" transform="translate(-751.4 -5196.799)"><g id="DEFINE" transform="translate(685 5144)"><g id="Group-4" transform="translate(68 54)"><g id="Group-17" transform="translate(24.621)"><path class="st0" d="M142.3 116H74.1c-7 0-12.7-5.7-12.7-12.7 0-.9.7-1.6 1.6-1.6s1.6.7 1.6 1.6c0 5.2 4.3 9.5 9.5 9.5h40.2c.1-3.1 1.1-5.6 3-7.5 3.6-3.6 9.2-3.6 9.4-3.6h26.7c.9 0 1.6.7 1.6 1.6 0 7-5.7 12.7-12.7 12.7zm-24.8-3.2h24.7c4.7 0 8.6-3.4 9.4-7.9h-25s-4.5 0-7.1 2.6c-1.2 1.3-1.9 3.1-2 5.3z" id="Stroke-1_00000043445804309476682350000011085080140858774686_"/><path class="st1" d="M73.8 120.1c0-6.5 5.2-11.7 11.7-11.7 6.5 0 11.7 5.2 11.7 11.7 0 6.5-5.2 11.7-11.7 11.7-6.5 0-11.7-5.2-11.7-11.7" id="Fill-3"/><path class="st0" d="M85.5 133.4c-7.3 0-13.3-6-13.3-13.3s6-13.3 13.3-13.3c7.3 0 13.3 6 13.3 13.3s-5.9 13.3-13.3 13.3zm0-23.4c-5.6 0-10.1 4.5-10.1 10.1s4.5 10.1 10.1 10.1 10.1-4.5 10.1-10.1S91.1 110 85.5 110z" id="Stroke-5_00000067216759210095828470000014428837661749434029_"/><path class="st1" d="M121.8 120.1c0-6.5 5.2-11.7 11.7-11.7 6.5 0 11.7 5.2 11.7 11.7 0 6.5-5.2 11.7-11.7 11.7-6.4 0-11.7-5.2-11.7-11.7" id="Fill-7_00000044164706882603338640000006259251312246549139_"/><path class="st0" d="M133.6 133.4c-7.3 0-13.3-6-13.3-13.3s6-13.3 13.3-13.3 13.3 6 13.3 13.3-6 13.3-13.3 13.3zm0-23.4c-5.6 0-10.1 4.5-10.1 10.1s4.5 10.1 10.1 10.1 10.1-4.5 10.1-10.1-4.6-10.1-10.1-10.1z" id="Stroke-9_00000013189658650579985410000016291464327370614956_"/><path class="st0" d="M102.4 116c-.9 0-1.6-.7-1.6-1.6 0-9.2-10.7-9.5-11.1-9.5H63c-.9 0-1.6-.7-1.6-1.6s.7-1.6 1.6-1.6h26.7c5 .1 14.3 2.8 14.3 12.7 0 .8-.7 1.6-1.6 1.6z" id="Stroke-11"/><path class="st0" d="M136.2 104.2h-.2c-.9-.1-1.5-.9-1.4-1.8l7.1-50.3c.1-.9.9-1.5 1.8-1.4.9.1 1.5.9 1.4 1.8l-7.1 50.3c-.1.9-.8 1.4-1.6 1.4z" id="Stroke-13"/><path class="st0" d="M151.9 53.8h-27.5c-.9 0-1.6-.7-1.6-1.6s.7-1.6 1.6-1.6h27.5c.9 0 1.6.7 1.6 1.6s-.7 1.6-1.6 1.6z" id="Stroke-15"/></g><path class="st2" d="M156.6 67.4h-15.9c-.9 0-1.6-.7-1.6-1.6s.7-1.6 1.6-1.6h15.9c.9 0 1.6.7 1.6 1.6s-.8 1.6-1.6 1.6z" id="Path-5-Copy"/><path class="st2" d="M78.9 104.8H63c-.9 0-1.6-.7-1.6-1.6s.7-1.6 1.6-1.6h15.9c.9 0 1.6.7 1.6 1.6s-.7 1.6-1.6 1.6z" id="Path-5-Copy-3"/><path class="st2" d="M80.5 112.8h-7.9c-.9 0-1.6-.7-1.6-1.6s.7-1.6 1.6-1.6h7.9c.9 0 1.6.7 1.6 1.6s-.7 1.6-1.6 1.6z" id="Path-5-Copy-8"/><path class="st2" d="M154.2 75.3h-7.9c-.9 0-1.6-.7-1.6-1.6s.7-1.6 1.6-1.6h7.9c.9 0 1.6.7 1.6 1.6s-.8 1.6-1.6 1.6z" id="Path-5-Copy-2"/></g></g></g></g></svg>