<svg version="1.1" id="Layer_1" xmlns="http://www.w3.org/2000/svg" x="0" y="0" viewBox="0 0 244.2 134.6" style="enable-background:new 0 0 244.2 134.6" xml:space="preserve"><style>.st0{fill:#006694}.st1{fill-rule:evenodd;clip-rule:evenodd;fill:#3abeee}.st2{fill:#f3f3f3}</style><g id="Page-1"><g id="BARNES_HOME-EXTENDED-v4" transform="translate(-440.4 -5247.4)"><g id="LISTEN" transform="translate(375 5144)"><g id="Group-5" transform="translate(67 105)"><g id="Group-11" transform="translate(26.311)"><path class="st0" d="M141.6 115.2H73.1c-7 0-12.7-5.7-12.7-12.8 0-.9.7-1.6 1.6-1.6s1.6.7 1.6 1.6c0 5.3 4.3 9.6 9.5 9.6h68.4c5.3 0 9.5-4.3 9.5-9.6 0-.9.7-1.6 1.6-1.6s1.6.7 1.6 1.6c.1 7-5.6 12.8-12.6 12.8z" id="Stroke-1"/><path class="st1" d="M127.8 125c0-3.5 2.8-6.4 6.4-6.4 3.5 0 6.4 2.9 6.4 6.4s-2.8 6.4-6.4 6.4c-3.6 0-6.4-2.9-6.4-6.4" id="Fill-3_00000002374178854729943840000006425305304082389423_"/><path class="st0" d="M134.1 133c-4.4 0-8-3.6-8-8s3.6-8 8-8 8 3.6 8 8-3.6 8-8 8zm0-12.8c-2.6 0-4.8 2.1-4.8 4.8s2.1 4.8 4.8 4.8 4.8-2.1 4.8-4.8-2.1-4.8-4.8-4.8z" id="Stroke-5"/><path class="st1" d="M71.8 125c0-3.5 2.8-6.4 6.4-6.4 3.5 0 6.4 2.9 6.4 6.4s-2.8 6.4-6.4 6.4c-3.5 0-6.4-2.9-6.4-6.4" id="Fill-7"/><path class="st0" d="M78.2 133c-4.4 0-8-3.6-8-8s3.6-8 8-8 8 3.6 8 8-3.6 8-8 8zm0-12.8c-2.6 0-4.8 2.1-4.8 4.8s2.1 4.8 4.8 4.8 4.8-2.1 4.8-4.8-2.2-4.8-4.8-4.8z" id="Stroke-9"/></g><path class="st2" d="M78 104.4H62c-.9 0-1.6-.7-1.6-1.6s.7-1.6 1.6-1.6h16c.9 0 1.6.7 1.6 1.6s-.7 1.6-1.6 1.6z" id="Path-5"/><path class="st2" d="M78 112.5h-8c-.9 0-1.6-.7-1.6-1.6s.7-1.6 1.6-1.6h8c.9 0 1.6.7 1.6 1.6s-.7 1.6-1.6 1.6z" id="Path-5_00000084489828544719110960000017744266877126324363_"/></g></g></g></g></svg>