<?xml version="1.0" encoding="UTF-8"?>
<svg width="250px" height="137px" viewBox="0 0 250 137" version="1.1" xmlns="http://www.w3.org/2000/svg" xmlns:xlink="http://www.w3.org/1999/xlink">
    <title>DEFINE</title>
    <g id="Page-1" stroke="none" stroke-width="1" fill="none" fill-rule="evenodd">
        <g id="BARNES_HOME-EXTENDED-v4-Copy" transform="translate(-685, -5144)">
            <g id="DEFINE" transform="translate(685, 5144)">
                <rect id="Rectangle-Copy-2" x="0" y="0" width="250" height="137"></rect>
                <g id="Group-17" transform="translate(80, 54)">
                    <path d="M0,51.4898049 L0,51.4898049 C0,57.5730579 4.99447035,62.5511348 11.0995342,62.5511348 L79.2794155,62.5511348 C85.3844793,62.5511348 90.3789497,57.5730579 90.3789497,51.4898049 L90.3789497,51.4898049 L63.6878984,51.4898049 C63.6878984,51.4898049 52.765195,51.3143801 52.9412257,61.4969914" id="Stroke-1" stroke="#006694" stroke-width="3.2" stroke-linecap="round" stroke-linejoin="round"></path>
                    <path d="M10.7961214,68.3151147 C10.7961214,61.8618749 16.0458362,56.6302295 22.5213646,56.6302295 C28.9976932,56.6302295 34.247408,61.8618749 34.247408,68.3151147 C34.247408,74.7683546 28.9976932,80 22.5213646,80 C16.0458362,80 10.7961214,74.7683546 10.7961214,68.3151147" id="Fill-3" fill="#3ABEEE"></path>
                    <path d="M10.7961214,68.3151147 C10.7961214,61.8618749 16.0458362,56.6302295 22.5213646,56.6302295 C28.9976932,56.6302295 34.247408,61.8618749 34.247408,68.3151147 C34.247408,74.7683546 28.9976932,80 22.5213646,80 C16.0458362,80 10.7961214,74.7683546 10.7961214,68.3151147 Z" id="Stroke-5" stroke="#006694" stroke-width="3.2" stroke-linecap="round" stroke-linejoin="round"></path>
                    <path d="M58.8260112,68.3151147 C58.8260112,61.8618749 64.075726,56.6302295 70.5512545,56.6302295 C77.027583,56.6302295 82.2772979,61.8618749 82.2772979,68.3151147 C82.2772979,74.7683546 77.027583,80 70.5512545,80 C64.075726,80 58.8260112,74.7683546 58.8260112,68.3151147" id="Fill-7" fill="#3ABEEE"></path>
                    <path d="M58.8260112,68.3151147 C58.8260112,61.8618749 64.075726,56.6302295 70.5512545,56.6302295 C77.027583,56.6302295 82.2772979,61.8618749 82.2772979,68.3151147 C82.2772979,74.7683546 77.027583,80 70.5512545,80 C64.075726,80 58.8260112,74.7683546 58.8260112,68.3151147 Z" id="Stroke-9" stroke="#006694" stroke-width="3.2" stroke-linecap="round" stroke-linejoin="round"></path>
                    <path d="M0,51.4898049 L26.6910513,51.4898049 C26.6910513,51.4898049 39.3756617,51.6652297 39.3756617,62.5511348" id="Stroke-11" stroke="#006694" stroke-width="3.2" stroke-linecap="round" stroke-linejoin="round"></path>
                    <line x1="80.3367997" y1="0.530341012" x2="73.2019564" y2="50.8310051" id="Stroke-13" stroke="#006694" stroke-width="3.2" stroke-linecap="round" stroke-linejoin="round"></line>
                    <line x1="61.441747" y1="0.398692687" x2="88.9257364" y2="0.398692687" id="Stroke-15" stroke="#006694" stroke-width="3.2" stroke-linecap="round" stroke-linejoin="round"></line>
                </g>
            </g>
        </g>
    </g>
</svg>