<?xml version="1.0" encoding="UTF-8"?>
<svg width="250px" height="137px" viewBox="0 0 250 137" version="1.1" xmlns="http://www.w3.org/2000/svg" xmlns:xlink="http://www.w3.org/1999/xlink">
    <title>LISTEN</title>
    <g id="Page-1" stroke="none" stroke-width="1" fill="none" fill-rule="evenodd">
        <g id="BARNES_HOME-EXTENDED-v4-Copy" transform="translate(-375, -5144)">
            <g id="LISTEN" transform="translate(375, 5144)">
                <rect id="Rectangle-Copy-3" x="0" y="0" width="250" height="137"></rect>
                <g id="Group-11" transform="translate(80, 105)">
                    <path d="M90.6887806,0 L90.6887806,0 C90.6887806,6.14079011 85.6771886,11.165951 79.5511957,11.165951 L11.1375849,11.165951 C5.01159205,11.165951 0,6.14079011 0,0 L0,0" id="Stroke-1" stroke="#006694" stroke-width="3.2" stroke-linecap="round" stroke-linejoin="round"></path>
                    <path d="M65.7626537,22.6193416 C65.7626537,19.09537 68.6120834,16.2386831 72.1271026,16.2386831 C75.6413189,16.2386831 78.4907486,19.09537 78.4907486,22.6193416 C78.4907486,26.1433131 75.6413189,29 72.1271026,29 C68.6120834,29 65.7626537,26.1433131 65.7626537,22.6193416" id="Fill-3" fill="#3ABEEE"></path>
                    <path d="M65.7626537,22.6193416 C65.7626537,19.09537 68.6120834,16.2386831 72.1271026,16.2386831 C75.6413189,16.2386831 78.4907486,19.09537 78.4907486,22.6193416 C78.4907486,26.1433131 75.6413189,29 72.1271026,29 C68.6120834,29 65.7626537,26.1433131 65.7626537,22.6193416 Z" id="Stroke-5" stroke="#006694" stroke-width="3.2" stroke-linecap="round" stroke-linejoin="round"></path>
                    <path d="M9.81146401,22.6193416 C9.81146401,19.09537 12.6608937,16.2386831 16.1759129,16.2386831 C19.6901293,16.2386831 22.539559,19.09537 22.539559,22.6193416 C22.539559,26.1433131 19.6901293,29 16.1759129,29 C12.6608937,29 9.81146401,26.1433131 9.81146401,22.6193416" id="Fill-7" fill="#3ABEEE"></path>
                    <path d="M9.81146401,22.6193416 C9.81146401,19.09537 12.6608937,16.2386831 16.1759129,16.2386831 C19.6901293,16.2386831 22.539559,19.09537 22.539559,22.6193416 C22.539559,26.1433131 19.6901293,29 16.1759129,29 C12.6608937,29 9.81146401,26.1433131 9.81146401,22.6193416 Z" id="Stroke-9" stroke="#006694" stroke-width="3.2" stroke-linecap="round" stroke-linejoin="round"></path>
                </g>
            </g>
        </g>
    </g>
</svg>