<svg version="1.1" id="Layer_1" xmlns="http://www.w3.org/2000/svg" x="0" y="0" viewBox="0 0 244.2 134.6" style="enable-background:new 0 0 244.2 134.6" xml:space="preserve"><style>.st0{fill:#006694}.st1{fill-rule:evenodd;clip-rule:evenodd;fill:#3abeee}.st2{fill:#f3f3f3}</style><g id="Page-1"><g id="BARNES_HOME-EXTENDED-v4" transform="translate(-1269.4 -5145)"><g id="ITERATE" transform="translate(1266 5144)"><g id="Group-7" transform="translate(5 3)"><g id="Group-23" transform="translate(28.194)"><path class="st0" d="M89.8 44.3H89c-20.6-.6-27.9-16.8-28.2-17.5-.2-.5-.2-1 .1-1.5.3-.4.7-.7 1.2-.8l48.6-4.1c.5 0 .9.1 1.3.5.3.3.5.8.5 1.3-.1.2-2.3 22.1-22.7 22.1zm-25-16.8c2.5 4.1 9.7 13.2 24.3 13.6 7.6.2 13.3-2.9 16.9-9.3 1.7-3 2.6-6.1 2.9-8l-44.1 3.7zm-2.5-1.4z" id="Stroke-1"/><path class="st0" d="M148.9 14.1c-.6 0-1.3-.4-1.5-1l-4.2-11h-25.5c-.9 0-1.6-.7-1.6-1.6s.7-1.6 1.6-1.6h26.7c.7 0 1.3.4 1.5 1l4.6 12.1c.3.8-.1 1.8-.9 2.1-.3-.1-.5 0-.7 0z" id="Stroke-3"/><path class="st0" d="M136.4 2.8h-18.7c-1.3 0-2.4-1.1-2.4-2.4s1.1-2.4 2.4-2.4h18.7c1.3 0 2.4 1.1 2.4 2.4s-1.1 2.4-2.4 2.4z" id="Stroke-5"/><path class="st0" d="M177.7 101c-.9 0-1.7-.2-2.5-.5-1.7-.7-3.1-2-3.8-3.7l-21.4-49c-17.1 9.9-27.7 28.1-27.7 48 0 .9-.7 1.6-1.6 1.6H92.2c-.9 0-1.6-.7-1.6-1.6 0-8.5-1.9-16.6-5.5-24.2L41.7 98.2c-1.7.9-6.1 3.3-9.4.6-3-2.4-3.4-6.9-.9-9.8l33.4-40c-8.9-5.6-19.1-8.6-29.7-8.6-9 0-17.9 2.2-25.9 6.4-.7.4-1.6.2-2.1-.5l-2.8-4.2c-.3-.7-.2-1.6.4-2.1.4-.3 9-7.7 30-8.3l1.9-4.8c.2-.6.8-1 1.5-1h17.2c.6 0 1.2.4 1.5 1 .3.8 8.7 19.5 32.7 20.2 23.6.7 26.1-23.9 26.2-25 .1-.6.5-1.2 1.1-1.4l31.6-9.7c.8-.2 1.6.2 2 .9l8.6 21.6c6.2-1.5 30.8-6.2 48.3 7.7.4.3.6.8.6 1.3l-.1 4c0 .6-.3 1.1-.8 1.3-.5.3-1.1.3-1.6 0-8.4-4.9-18-7.4-27.8-7.4-5.1 0-10.1.7-14.9 2L184 91.3c1.5 3.5-.1 7.6-3.6 9.2-.8.3-1.8.5-2.7.5zm-26.9-57.1c.2 0 .5.1.7.2.5.2.8.7.9 1.2.1.3.1.6.3.9l21.6 49.5c.4.9 1.1 1.6 2.1 2 .9.4 2 .3 2.9-.1 1.9-.8 2.8-3.1 1.9-5l-21.6-49.5c-.1-.2-.2-.5-.4-.7-.3-.4-.4-1-.2-1.4.2-.5.5-.9 1-1 5.7-1.8 11.7-2.7 17.7-2.7 9.4 0 18.7 2.3 27 6.6v-.6c-9.5-7.2-21.3-8.6-29.7-8.4-9.3.1-16.5 2.1-16.5 2.2-.8.2-1.6-.2-1.9-.9L148 14.4l-29.2 9c-.8 5.1-5.6 26.8-28.3 26.8h-1c-22.8-.7-32.9-17-35.1-21.2H39.2l-1.9 4.8c-.2.6-.8 1-1.5 1-16.4.3-25 4.8-27.9 6.7L9 43.2c8-4 17-6.1 26.1-6.1 11.8 0 23.2 3.5 32.9 10.1.4.3.6.7.7 1.1.1.4-.1.9-.4 1.2L33.8 91c-1.3 1.6-1.1 4 .5 5.3 1.1.9 2.9.7 5.8-.9L84.8 68c.4-.2.8-.3 1.3-.2.4.1.8.4 1 .8 4.1 7.9 6.4 16.7 6.7 25.6h25.3c.6-21.1 12.3-40.2 31-50.2.2-.1.4-.1.7-.1z" id="Stroke-7"/><path class="st1" d="M46.9 95.8c0 6.5-5.2 11.7-11.7 11.7-6.5 0-11.7-5.2-11.7-11.7s5.2-11.7 11.7-11.7c.8 0 1.5.1 2.2.2l15.7-18.8c-5.2-3.1-11.4-4.9-17.9-4.9C15.7 60.6 0 76.4 0 95.8S15.7 131 35.2 131c19.4 0 35.2-15.8 35.2-35.2 0-5.4-1.2-10.4-3.3-15L46.6 93.3c.2.8.3 1.7.3 2.5" id="Fill-9"/><path class="st0" d="M35.2 132.6c-20.3 0-36.8-16.5-36.8-36.8S14.9 59 35.2 59c6.6 0 13.1 1.8 18.7 5.1.4.2.7.6.8 1.1s0 .9-.3 1.3L38.6 85.3c-.4.4-1 .7-1.5.5-6.4-1.2-12 3.7-12 9.9 0 5.6 4.5 10.1 10.1 10.1s10.1-4.5 10.1-10.1c0-.7-.1-1.4-.2-2.1-.1-.7.1-1.3.7-1.7l20.4-12.5c.4-.2.9-.3 1.3-.2.4.1.8.4 1 .9C70.8 85 72 90.3 72 95.8c-.1 20.3-16.6 36.8-36.8 36.8zm0-70.4c-18.5 0-33.6 15.1-33.6 33.6s15.1 33.6 33.6 33.6 33.6-15.1 33.6-33.6c0-4.4-.8-8.6-2.5-12.7l-17.9 11c.1.6.1 1.1.1 1.7 0 7.3-6 13.3-13.3 13.3-7.3 0-13.3-6-13.3-13.3 0-7.9 6.8-14.2 14.9-13.2L50.6 66c-4.8-2.5-10.1-3.8-15.4-3.8z" id="Stroke-11"/><path class="st1" d="M177.7 60.6c-2.8 0-5.6.3-8.3 1l9.9 22.6c5.7.8 10.1 5.7 10.1 11.6 0 6.5-5.2 11.7-11.7 11.7S166 102.3 166 95.8c0-3.1 1.2-5.9 3.2-8l-9.7-22.1c-10.2 6.2-17 17.3-17 30.1 0 19.4 15.7 35.2 35.2 35.2s35.2-15.8 35.2-35.2c-.1-19.4-15.8-35.2-35.2-35.2" id="Fill-13"/><path class="st0" d="M177.7 132.6c-20.3 0-36.8-16.5-36.8-36.8 0-13 6.6-24.8 17.7-31.5.4-.2.9-.3 1.3-.2.4.1.8.5 1 .9l9.7 22.1c.3.6.1 1.3-.3 1.7-1.8 1.9-2.8 4.3-2.8 6.9 0 5.6 4.5 10.1 10.1 10.1s10.1-4.5 10.1-10.1c0-5-3.7-9.3-8.7-10-.5-.1-1-.4-1.2-.9l-9.9-22.6c-.2-.4-.2-.9 0-1.4.2-.4.6-.7 1.1-.8 2.8-.7 5.7-1 8.6-1 20.3 0 36.8 16.5 36.8 36.8s-16.5 36.8-36.7 36.8zm-18.9-64.5c-9.2 6.3-14.7 16.5-14.7 27.8 0 18.5 15.1 33.6 33.6 33.6s33.6-15.1 33.6-33.6-15.1-33.6-33.6-33.6c-2 0-4 .2-6 .5l8.8 20c6.1 1.3 10.5 6.7 10.5 13 0 7.3-6 13.3-13.3 13.3-7.3 0-13.3-6-13.3-13.3 0-3 1-6 2.9-8.3l-8.5-19.4z" id="Stroke-15"/><path class="st0" d="M126.1 72H98.9c-.9 0-1.6-.7-1.6-1.6s.7-1.6 1.6-1.6h27.2c.9 0 1.6.7 1.6 1.6s-.8 1.6-1.6 1.6z" id="Stroke-17"/><path class="st0" d="M121.6 84.1h-15c-.9 0-1.6-.7-1.6-1.6s.7-1.6 1.6-1.6h15c.9 0 1.6.7 1.6 1.6s-.7 1.6-1.6 1.6z" id="Stroke-19"/><path class="st0" d="M163.8 29.7h-8.2c-.9 0-1.6-.7-1.6-1.6s.7-1.6 1.6-1.6h5.9L156.9 14H149c-.9 0-1.6-.7-1.6-1.6s.7-1.6 1.6-1.6h9.1c.7 0 1.3.4 1.5 1l5.8 15.7c.2.5.1 1-.2 1.5-.4.5-.9.7-1.4.7z" id="Stroke-21"/></g><path class="st2" d="M23.9 80.8H0c-.9 0-1.6-.7-1.6-1.6s.7-1.6 1.6-1.6h23.9c.9 0 1.6.7 1.6 1.6s-.7 1.6-1.6 1.6z" id="Path-5-Copy"/><path class="st2" d="M166.1 116.8h-23.9c-.9 0-1.6-.7-1.6-1.6s.7-1.6 1.6-1.6h23.9c.9 0 1.6.7 1.6 1.6s-.7 1.6-1.6 1.6z" id="Path-5-Copy-4"/><path class="st2" d="M20.7 88.8H8.8c-.9 0-1.6-.7-1.6-1.6s.7-1.6 1.6-1.6h11.9c.9 0 1.6.7 1.6 1.6s-.7 1.6-1.6 1.6z" id="Path-5-Copy-2"/><path class="st2" d="M170.9 124.7H159c-.9 0-1.6-.7-1.6-1.6s.7-1.6 1.6-1.6h11.9c.9 0 1.6.7 1.6 1.6s-.7 1.6-1.6 1.6z" id="Path-5-Copy-5"/><path class="st2" d="M28.7 72.8H16.8c-.9 0-1.6-.7-1.6-1.6s.7-1.6 1.6-1.6h11.9c.9 0 1.6.7 1.6 1.6s-.7 1.6-1.6 1.6z" id="Path-5-Copy-2_00000116196214116874843710000004690528374432536511_"/><path class="st2" d="M162.9 108.8H151c-.9 0-1.6-.7-1.6-1.6s.7-1.6 1.6-1.6h11.9c.9 0 1.6.7 1.6 1.6s-.7 1.6-1.6 1.6z" id="Path-5-Copy-6"/><path class="st2" d="M144.5 108.8h-3.9c-.9 0-1.6-.7-1.6-1.6s.7-1.6 1.6-1.6h3.9c.9 0 1.6.7 1.6 1.6s-.7 1.6-1.6 1.6z" id="Path-5-Copy-7"/></g></g></g></g></svg>