<svg width="134" height="130" xmlns="http://www.w3.org/2000/svg" xmlns:xlink="http://www.w3.org/1999/xlink"><defs><path id="a" d="M0 0h134v130H0z"/></defs><g fill="none" fill-rule="evenodd"><path d="M8.21 65.355c12.475 6.791 24.48 13.359 36.542 19.82.804.431 2.425.51 3.009.003 4.54-3.949 8.917-8.081 13.745-12.526-13.33-7.274-26.097-14.275-38.934-21.149-.668-.359-2.29.033-2.842.64-3.822 4.19-7.477 8.532-11.52 13.212zm117.455-.015c-3.998-4.629-7.723-8.75-11.209-13.063-1.54-1.906-2.762-1.113-4.297-.27-9.061 4.982-18.144 9.926-27.22 14.883-3.365 1.839-6.728 3.681-10.55 5.773 4.834 4.447 9.235 8.578 13.769 12.56.546.48 2.005.522 2.704.146 12.171-6.55 24.29-13.195 36.803-20.03zm0-37.636L86.09 6.854 72.22 21.786l40.64 20.833 12.804-14.916zM21.055 42.623l40.608-21.014-13.89-14.922L8.21 27.722l12.843 14.901zM63.77 79.3c-4.585 4.226-8.669 7.772-12.485 11.584-2.495 2.494-4.737 2.867-7.864 1.045-6.43-3.745-13.053-7.163-20.082-10.978 0 5.532.193 10.417-.076 15.277-.147 2.648.93 3.854 3.1 5.012 11.413 6.087 22.744 12.323 34.113 18.488.979.53 2.032.926 3.294 1.494V79.3zm6.389 42.18c13.432-7.301 26.267-14.26 39.06-21.293.633-.348 1.26-1.355 1.273-2.066.105-5.508.058-11.02.058-17.144-6.258 3.396-12.02 6.51-17.768 9.646-6.445 3.516-6.435 3.52-11.845-1.493-3.423-3.172-6.866-6.322-10.778-9.922v42.273zM0 67.219v-2.325L16.076 46.72 0 27.69v-2.326c1.41-.856 2.782-1.782 4.235-2.557 13.458-7.182 26.983-14.243 40.36-21.573 3.332-1.825 5.511-1.624 8.03 1.284 4.54 5.238 9.425 10.179 14.335 15.425 5.045-5.405 9.906-10.402 14.503-15.628 2.278-2.59 4.315-2.977 7.393-1.31 13.525 7.327 27.158 14.457 40.748 21.666 5.316 2.82 5.56 4.188 1.653 8.7-4.371 5.048-8.722 10.116-13.133 15.235 4.885 5.662 9.555 11.018 14.159 16.431 2.596 3.054 2.285 4.797-1.18 6.75-3.83 2.158-7.669 4.313-11.604 6.269-2.017 1.001-2.692 2.305-2.643 4.523.143 6.45-.04 12.907.093 19.359.054 2.641-.852 4.22-3.247 5.503C99.231 113.2 84.823 121.074 70.444 129c-2.272 1.252-4.2 1.378-6.518.101a5064.964 5064.964 0 0 0-43.596-23.755c-2.38-1.283-3.249-2.954-3.192-5.583.132-6.192-.129-12.397.117-18.583.115-2.883-.917-4.29-3.418-5.618-4.75-2.523-9.24-5.534-13.837-8.343z" fill="#006694"/><g><mask id="b" fill="#fff"><use xlink:href="#a"/></mask><path fill="#3ABEEE" mask="url(#b)" d="m67.216 25.765 41.06 21.128-41.5 21.897-41.502-21.897z"/></g></g></svg>