<svg width="133" height="138" xmlns="http://www.w3.org/2000/svg"><g fill="#FEFEFE" fill-rule="evenodd"><path d="M62.1 110.56c7.044-.078 12.534-2.919 16.866-8.143 3.84-4.632 5.695-9.877 4.894-16.245-.59.373-.921.502-1.142.735-5.651 5.961-12.5 10.32-19.406 14.615-.524.326-.976 1.163-1.021 1.794-.163 2.271-.137 4.556-.19 7.244m22.274-80.316c1.04 7.964 8.634 14.765 15.875 15.19 1.387.081 1.893-.248 2.086-1.566.718-4.926.512-9.821-.421-14.69-.082-.428-.625-1.054-1.008-1.097-5.693-.648-11.15.507-16.532 2.163M46.674 54.15l-.394-.596c-1.668.362-3.36.631-4.997 1.1-9.602 2.748-16.557 12.739-15.917 22.67.084 1.303.64 1.43 1.676 1.269 1.792-.278 3.586-.649 5.389-.706 1.204-.039 1.68-.437 2.123-1.53 2.702-6.66 5.806-13.12 10.026-18.987.748-1.038 1.398-2.145 2.094-3.22m-.442 37.684.014-.015c-1.501-1.305-3.073-2.54-4.475-3.943-.77-.773-1.278-.661-2.079-.147-7.318 4.697-8.926 12.149-8.357 20.072.076 1.048.725 1.289 1.564 1.1 3.238-.73 6.592-1.176 9.661-2.355 4-1.535 6.81-4.59 8.602-8.552.475-1.051.339-1.673-.544-2.377-1.509-1.202-2.929-2.516-4.386-3.783m55.032-41.532c-5.534-.618-10.073-2.378-13.894-5.696-3.861-3.356-6.15-7.715-7.59-12.833-2.23 1.246-4.34 2.344-6.37 3.574-7.551 4.569-13.711 10.66-19.374 17.377-6.093 7.226-10.962 15.132-14.6 23.837-.706 1.689-.387 2.757 1 3.936 6.337 5.39 12.61 10.86 18.852 16.36.89.786 1.518.727 2.458.197 6.153-3.466 11.63-7.855 16.724-12.672 3.477-3.289 6.78-6.842 9.682-10.642 3.249-4.255 6.157-8.809 8.832-13.452 1.727-2.995 2.768-6.385 4.28-9.986M91.04 78.123c-2.909 1.933-2.996 4.687-2.623 7.968 1.696 14.898-9.55 29.128-26.814 28.979a7.693 7.693 0 0 1-.701-.049c-2.916-.295-2.978-.297-3.125-3.26-.137-2.75-.122-5.508-.195-8.262-.015-.58.032-1.23-.21-1.722-.318-.649-.891-1.171-1.356-1.748-.447.45-1.024.826-1.325 1.36-4.976 8.843-13.294 11.465-22.624 12.11-4.75.33-5.013.03-5.244-4.79-.22-4.584-.067-9.13 1.35-13.565 1.28-4 3.997-6.945 6.864-9.828.63-.635.98-1.55 1.459-2.337-.966-.276-1.957-.854-2.893-.772-3.032.26-6.047.732-9.06 1.184-1.938.29-2.482.067-2.978-1.99-1.424-5.91-.886-11.717 1.835-17.12 5.052-10.031 13.342-15.038 24.593-14.948 1.87.014 3.178-.536 4.392-1.974 8.201-9.703 18.104-17.057 30.125-21.383 6.855-2.467 13.915-3.09 21.13-2.14 1.058.14 1.614.63 1.947 1.678 2.798 8.818 2.096 17.571-.349 26.314-1.714 6.13-4.348 11.858-7.755 17.206-1.977 3.104-4.251 6.017-6.443 9.089"/><path d="M79.353 61.385c1.749-1.99 1.625-5.065-.271-6.744-2.516-2.226-5.166-2.15-7.207.206-1.814 2.096-1.666 5.468.314 7.115 2.228 1.853 5.243 1.61 7.164-.577m-10.046 3.906c-4.044-3.523-4.427-9.748-.847-13.821 3.16-3.598 10.11-3.998 13.78-.792 3.804 3.322 4.125 9.908.774 13.846-3.247 3.818-10.314 4.35-13.707.767"/></g></svg>