<?xml version="1.0" encoding="UTF-8"?>
<svg width="133px" height="138px" viewBox="0 0 133 138" version="1.1" xmlns="http://www.w3.org/2000/svg" xmlns:xlink="http://www.w3.org/1999/xlink">
    <title>MODERNISATION</title>
    <g id="Page-1" stroke="none" stroke-width="1" fill="none" fill-rule="evenodd">
        <g id="HOMEPAGE_FINAL" transform="translate(-1012.000000, -3998.000000)" fill="#FEFEFE">
            <g id="MODERNISATION" transform="translate(1078.418402, 4066.774467) rotate(41.000000) translate(-1078.418402, -4066.774467) translate(1041.999775, 4007.999916)">
                <g id="Group-3" transform="translate(-0.000000, -0.000000)">
                    <path d="M60.5739563,93.143379 C65.8379563,88.463379 68.1179563,82.717379 67.9599563,75.933379 C67.8199563,69.917379 65.7779563,64.742379 60.9959563,60.462379 C60.7959563,61.130379 60.6299563,61.445379 60.6159563,61.766379 C60.2619563,69.972379 57.9539563,77.755379 55.5579563,85.527379 C55.3769563,86.117379 55.5849563,87.045379 55.9649563,87.551379 C57.3319563,89.372379 58.8499563,91.079379 60.5739563,93.143379 M24.6919563,17.914379 C30.7019563,23.243379 40.8949563,23.393379 46.6389563,18.963379 C47.7389563,18.115379 47.9049563,17.534379 47.1859563,16.413379 C44.4959563,12.224379 41.1289563,8.66537896 37.2309563,5.60337896 C36.8879563,5.33337896 36.0679563,5.21737896 35.7499563,5.43637896 C31.0289563,8.68237896 27.6669563,13.134379 24.6919563,17.914379 M11.9229563,60.691379 C11.6939563,60.628379 11.4649563,60.564379 11.2349563,60.500379 C10.2139563,61.867379 9.11295634,63.181379 8.18495634,64.608379 C2.74195634,72.982379 4.04695634,85.085379 11.0459563,92.161379 C11.9639563,93.089379 12.4669563,92.819379 13.1429563,92.018379 C14.3129563,90.633379 15.4239563,89.176379 16.7469563,87.950379 C17.6299563,87.131379 17.7289563,86.518379 17.3459563,85.403379 C15.0149563,78.603379 13.1199563,71.691379 12.4559563,64.495379 C12.3389563,63.221379 12.1039563,61.959379 11.9229563,60.691379 M36.3129563,89.422379 L36.3129563,89.401379 C34.3239563,89.401379 32.3279563,89.501379 30.3489563,89.361379 C29.2609563,89.283379 28.9509563,89.701379 28.6839563,90.614379 C26.2419563,98.960379 29.9179563,105.639379 35.5449563,111.245379 C36.2899563,111.987379 36.9379563,111.742379 37.4469563,111.049379 C39.4119563,108.374379 41.6509563,105.837379 43.1939563,102.934379 C45.2049563,99.152379 45.3219563,95.002379 44.0749563,90.836379 C43.7439563,89.731379 43.2329563,89.351379 42.1049563,89.399379 C40.1779563,89.482379 38.2439563,89.422379 36.3129563,89.422379 M50.5989563,21.973379 C46.0169563,25.137379 41.4359563,26.787379 36.3759563,26.789379 C31.2599563,26.790379 26.6729563,25.001379 22.2279563,22.084379 C21.3619563,24.487379 20.4909563,26.700379 19.7649563,28.960379 C17.0639563,37.362379 16.4109563,46.000379 16.5439563,54.785379 C16.6869563,64.236379 18.1989563,73.397379 21.1639563,82.354379 C21.7389563,84.091379 22.6809563,84.688379 24.5009563,84.668863 C32.8199563,84.579379 41.1419563,84.591379 49.4619563,84.648379 C50.6499563,84.656379 51.0839563,84.200379 51.4459563,83.183379 C53.8159563,76.531379 55.0699563,69.625379 55.7539563,62.648379 C56.2209563,57.884379 56.3819563,53.036379 56.0789563,48.264379 C55.7399563,42.921379 54.9469563,37.577379 53.9199563,32.317379 C53.2579563,28.924379 51.8199563,25.682379 50.5989563,21.973379 M61.1329563,49.677379 C60.2059563,53.044379 61.9469563,55.180379 64.3809563,57.411379 C75.4349563,67.543379 76.2839563,85.660379 63.1559563,96.874379 C62.9779563,97.026379 62.7859563,97.162379 62.5949563,97.297379 C60.2009563,98.987379 60.1529563,99.026379 58.0969563,96.886379 C56.1899563,94.900379 54.3919563,92.810379 52.5309563,90.779379 C52.1379563,90.351379 51.7469563,89.829379 51.2429563,89.617379 C50.5769563,89.336379 49.8009563,89.318379 49.0719563,89.187379 C49.0289563,89.820379 48.8409563,90.483379 48.9639563,91.083379 C51.0099563,101.022379 46.4529563,108.458379 39.8349563,115.066379 C36.4659563,118.432379 36.0709563,118.377379 32.7339563,114.891379 C29.5609563,111.576379 26.6939563,108.044379 24.8539563,103.767379 C23.1949563,99.909379 23.3139563,95.903379 23.5859563,91.847379 C23.6459563,90.954379 23.3079563,90.034379 23.1539563,89.126379 C22.2439563,89.551379 21.1169563,89.766379 20.4639563,90.441379 C18.3469563,92.627379 16.3809563,94.961379 14.4039563,97.278379 C13.1309563,98.769379 12.5739563,98.958379 10.8499563,97.730379 C5.89795634,94.204379 2.49495634,89.469379 1.00395634,83.606379 C-1.76504366,72.721379 1.20695634,63.504379 9.75695634,56.190379 C11.1779563,54.974379 11.8039563,53.701379 11.7769563,51.819379 C11.6009563,39.116379 14.2499563,27.069379 20.4839563,15.918379 C24.0389563,9.55837896 28.9589563,4.45737896 35.0269563,0.441378957 C35.9179563,-0.147621043 36.6589563,-0.142621043 37.5969563,0.429378957 C45.4939563,5.24837896 50.7069563,12.315379 54.5979563,20.517379 C57.3259563,26.268379 59.0959563,32.319379 60.0329563,38.591379 C60.5769563,42.230379 60.7719563,45.921379 61.1329563,49.677379" id="Fill-1"></path>
                </g>
                <path d="M41.3326256,44.711979 C41.3465563,42.061979 39.2365563,39.822979 36.7035563,39.799979 C33.3445563,39.769979 31.3935563,41.565979 31.3995425,44.682979 C31.4055563,47.455979 33.7295563,49.902979 36.3045563,49.846979 C39.2015563,49.783979 41.3175563,47.622979 41.3326256,44.711979 M36.3135563,54.249979 C30.9495563,54.244979 26.5775563,49.797979 26.6064129,44.374979 C26.6315563,39.585979 31.6145563,34.724979 36.4875563,34.7369568 C41.5375563,34.748979 46.1005563,39.508979 46.1555563,44.678979 C46.2095563,49.690979 41.2255563,54.728979 36.3135563,54.249979" id="Fill-10"></path>
            </g>
        </g>
    </g>
</svg>