<?xml version="1.0" encoding="UTF-8"?>
<svg width="164px" height="137px" viewBox="0 0 164 137" version="1.1" xmlns="http://www.w3.org/2000/svg" xmlns:xlink="http://www.w3.org/1999/xlink">
    <title>SERVICES</title>
    <defs>
        <polygon id="path-1" points="0 0 124.695856 0 124.695856 137 0 137"></polygon>
    </defs>
    <g id="Page-1" stroke="none" stroke-width="1" fill="none" fill-rule="evenodd">
        <g id="HOMEPAGE_FINAL" transform="translate(-878.000000, -1462.000000)">
            <g id="SERVICES" transform="translate(878.000000, 1462.000000)">
                <path d="M63.480341,73.5160659 C62.141019,72.1792986 61.4033692,70.3973433 61.404571,68.4998797 C61.4057758,64.5858346 64.5814007,61.3985289 68.4850488,61.3961225 C72.4055436,61.3961225 75.5919986,64.5858346 75.5919986,68.5070989 C75.5919986,72.4055023 72.4223905,75.5831823 68.5271658,75.5904015 L68.5199458,76.7924092 C68.5175391,76.7924092 68.5151324,76.7936124 68.5127257,76.7936124 L68.5127257,75.5904015 C66.6078321,75.5904015 64.8208662,74.8540365 63.480341,73.5160659 L63.480341,73.5160659 Z M79.4017858,57.6926393 C76.5197769,54.7724465 72.6738894,53.1577374 68.5716896,53.1481117 L68.5680795,53.1481117 L68.5331825,53.1481117 C60.070064,53.1481117 53.1700893,60.0003979 53.1519988,68.4228742 C53.1327856,76.899495 60.0183202,83.8143481 68.5006923,83.8348027 C76.9541841,83.8348027 83.8204651,77.0029711 83.8446003,68.6057622 C83.8565654,64.4835617 82.2789814,60.6080194 79.4017858,57.6926393 L79.4017858,57.6926393 Z" id="Fill-1" fill="#006694"></path>
                <path d="M153.192767,101.089328 C150.970191,101.089328 149.162768,99.2821055 149.162768,97.059775 C149.162768,94.8386477 150.970191,93.0314249 153.192767,93.0314249 C155.415344,93.0314249 157.222766,94.8386477 157.222766,97.059775 C157.222766,99.2821055 155.415344,101.089328 153.192767,101.089328 M47.444096,68.5087834 C47.4465037,56.8604987 56.8410106,47.4417637 68.4641106,47.4333371 C80.1425644,47.426122 89.5515114,56.8352312 89.5515114,68.5244252 C89.5527148,80.1065333 80.1497845,89.5336908 68.5724116,89.5565934 C56.8855343,89.5794128 47.440487,80.1703035 47.444096,68.5087834 M141.159327,65.3551677 C143.381903,65.3551677 145.189326,67.1623904 145.189326,69.384721 C145.189326,71.6070515 143.381903,73.4142743 141.159327,73.4142743 C138.93675,73.4142743 137.128124,71.6070515 137.128124,69.384721 C137.128124,67.1623904 138.93675,65.3551677 141.159327,65.3551677 M153.192767,36.4456193 C155.415344,36.4456193 157.222766,38.2540452 157.222766,40.4751726 C157.222766,42.6975031 155.415344,44.5047259 153.192767,44.5047259 C150.970191,44.5047259 149.162768,42.6975031 149.162768,40.4751726 C149.162768,38.2540452 150.970191,36.4456193 153.192767,36.4456193 M153.192767,86.2537379 C148.61645,86.2537379 144.705582,89.1161766 143.131608,93.1421203 L134.856211,93.1421203 L134.856211,86.4630966 C134.856211,84.5921036 133.338794,83.0748546 131.466391,83.0748546 L93.2012539,83.0748546 C95.1350277,79.8177627 96.4358426,76.1503759 96.9364337,72.2435501 L130.746791,72.2435501 C132.005489,76.8169547 136.190719,80.1919613 141.159327,80.1919613 C147.118287,80.1919613 151.96656,75.3430214 151.96656,69.384721 C151.96656,63.4264206 147.118287,58.5786838 141.159327,58.5786838 C136.58301,58.5786838 132.670938,61.4411226 131.096964,65.4658631 L96.9978043,65.4658631 C96.5694138,61.4976735 95.3432062,57.774939 93.4852431,54.4612961 L131.466391,54.4612961 C133.338794,54.4612961 134.856211,52.9440472 134.856211,51.0730542 L134.856211,44.3940305 L143.131608,44.3940305 C144.705582,48.418771 148.61645,51.2824129 153.192767,51.2824129 C159.151727,51.2824129 164,46.4346762 164,40.4751726 C164,34.5168722 159.151727,29.6679322 153.192767,29.6679322 C148.22416,29.6679322 144.040133,33.0429388 142.781435,37.6163435 L131.466391,37.6163435 C129.595191,37.6163435 128.077774,39.1335924 128.077774,41.0045854 L128.077774,47.6836091 L88.2230196,47.6836091 C83.1208409,42.8250435 76.2425264,39.8398772 68.6470189,39.8206258 C52.7520476,39.7821231 39.8570129,52.5457844 39.8208411,68.3499596 C39.7860156,84.3165683 52.5390557,97.122342 68.5158544,97.1620479 C75.8345928,97.1800961 82.5444391,94.4054917 87.6309743,89.8525417 L128.077774,89.8525417 L128.077774,96.5303622 C128.077774,98.4013551 129.595191,99.9186041 131.466391,99.9186041 L142.781435,99.9186041 C144.038929,104.492009 148.22416,107.867015 153.192767,107.867015 C159.151727,107.867015 164,103.019279 164,97.059775 C164,91.1014746 159.151727,86.2537379 153.192767,86.2537379" id="Fill-3" fill="#3ABEEE"></path>
                <g id="Group-7">
                    <mask id="mask-2" fill="white">
                        <use xlink:href="#path-1"></use>
                    </mask>
                    <g id="Clip-6"></g>
                    <path d="M111.617592,99.0674527 C113.231276,101.130959 114.913551,103.140322 116.60064,105.144871 C117.031437,105.656236 117.122891,105.97629 116.586199,106.503296 C113.207209,109.833784 109.854693,113.191946 106.516617,116.564546 C106.046109,117.041017 105.73685,117.068691 105.220615,116.631925 C103.284435,114.994355 101.319374,113.389272 99.3458895,111.795018 C96.2785656,109.317606 92.9104056,108.848354 89.2678832,110.343945 C87.2787555,111.160926 85.2884245,111.976702 83.3089236,112.814137 C79.6327076,114.368686 77.6808835,117.181793 77.2982201,121.121105 C77.059958,123.563624 76.8156792,126.004938 76.6002806,128.449863 C76.5425201,129.1008 76.349985,129.390774 75.6027084,129.384758 C70.8855998,129.347458 66.1672878,129.36671 61.4501792,129.365506 C61.1782235,129.365506 60.9062677,129.339036 60.5356378,129.320988 C60.379203,127.782081 60.2492419,126.278067 60.0651303,124.778867 C59.8172414,122.759879 59.7089404,120.698778 59.2095526,118.739951 C58.5260532,116.062807 56.7150205,114.159327 54.1928114,113.031918 C51.8775775,111.99836 49.5454967,110.988866 47.1652822,110.121351 C43.7658353,108.882044 40.5926171,109.44635 37.762352,111.718012 C35.740734,113.33994 33.7407762,114.990746 31.7564619,116.657193 C31.2727176,117.065081 30.976695,117.048236 30.525441,116.59222 C27.1693144,113.199165 23.7939344,109.825361 20.4005043,106.468403 C19.9480469,106.020809 19.9251834,105.734444 20.3403371,105.241128 C22.0262221,103.236578 23.6904468,101.212778 25.3221814,99.1625064 C27.6530587,96.2362974 28.1079228,92.9936441 26.7577708,89.5223806 C25.9094132,87.339756 25.0213453,85.1703668 24.0682969,83.032261 C22.5171864,79.5513718 19.7711553,77.6803789 15.9998751,77.2965546 C13.5318165,77.0462867 11.0613512,76.8032381 8.58847924,76.5926762 C7.89414974,76.5337189 7.59812711,76.3363923 7.60534717,75.5506956 C7.64626087,70.8605795 7.64505752,66.1716666 7.60534717,61.4815505 C7.59933045,60.6693831 7.89053971,60.457618 8.63661301,60.3938478 C11.3284936,60.1640345 14.0263909,59.9522694 16.7014247,59.5816805 C20.1598355,59.1015993 22.6327074,57.188494 24.0466367,53.9891562 C24.981635,51.871505 25.8660929,49.7309928 26.7192638,47.5796517 C28.1151429,44.0554469 27.6771256,40.7658683 25.2981145,37.7879213 C23.7482074,35.8495486 22.1561832,33.9448657 20.5761925,32.0317604 C19.8228991,31.1185233 19.8132724,31.1245394 20.6784767,30.2594307 C23.9515725,26.980681 27.2367017,23.711557 30.4893406,20.4123527 C30.9670682,19.9286619 31.2835477,19.9262555 31.7877488,20.3497857 C33.7949267,22.034281 35.8069179,23.7127602 37.8622295,25.3370949 C40.7935756,27.6544791 44.0401978,28.0936511 47.5094386,26.7400388 C49.5623435,25.9387004 51.5887749,25.063966 53.6236296,24.2144991 C57.2986423,22.679202 59.3094302,19.9094105 59.7077371,15.9616755 C59.9568293,13.4926868 60.1987014,11.0224948 60.4128967,8.54989637 C60.4694538,7.88813037 60.6788357,7.61259507 61.4128756,7.61740791 C66.185338,7.65109782 70.9590038,7.63304966 75.7314662,7.63545608 C75.9480681,7.63545608 76.1658734,7.67034919 76.4763362,7.69681983 C76.5774171,8.63773076 76.6797013,9.56299995 76.7759688,10.4894723 C76.9937741,12.6011075 77.1261419,14.7247747 77.4426214,16.8219713 C77.9648727,20.2860155 79.941967,22.702063 83.128422,24.1038037 C85.2222406,25.0254633 87.3389227,25.8941816 89.4688417,26.7280067 C92.9657594,28.0960575 96.2340418,27.6604952 99.1882514,25.3082178 C101.215886,23.6935088 103.217047,22.0451099 105.197752,20.3726467 C105.739256,19.9154266 106.056939,19.9455068 106.556327,20.4508554 C109.869133,23.8078138 113.208413,27.1407081 116.566946,30.4519445 C117.074757,30.9524802 117.089197,31.2761439 116.63313,31.8151824 C115.011022,33.729491 113.433438,35.681099 111.845024,37.6242847 C111.153101,38.4725483 110.63085,39.3472827 110.246983,40.2436748 L119.539206,40.2436748 C120.641469,38.9057043 121.748545,37.5713434 122.839978,36.2249504 C124.044526,34.7389849 124.661841,33.0304254 124.683501,30.8863036 C124.669061,28.9768079 123.971122,27.117847 122.447688,25.594582 C118.819606,21.965698 115.195134,18.3332042 111.558628,14.7139458 C108.580352,11.7480309 104.093082,11.5134048 100.816376,14.1544528 C98.7550476,15.8148838 96.6985326,17.4825341 94.674508,19.187484 C93.8598441,19.8745174 93.0584169,20.003261 92.0849116,19.5809339 C90.1884414,18.7579377 88.2799378,17.9638185 86.356994,17.2057956 C85.384692,16.8231745 84.968335,16.1590021 84.8792875,15.1410857 C84.6386187,12.3953584 84.3798998,9.64842792 84.0562002,6.91112311 C83.6049462,3.07769317 80.2873267,0.0540241696 76.4522693,0.0251471079 C71.1828258,-0.0157620628 65.9133823,-0.00613637561 60.6439387,0.0419920606 C56.7330706,0.0768851768 53.4154511,3.07288033 52.9666038,6.9315777 C52.645311,9.69775957 52.386592,12.4711607 52.127873,15.2433586 C52.0388256,16.1938952 51.6188585,16.8207681 50.7163505,17.1805282 C48.7958134,17.9457703 46.881293,18.725451 44.9884329,19.5544633 C43.9872506,19.9936353 43.17018,19.8913624 42.3254325,19.1766551 C40.3062212,17.4656892 38.2581297,15.7860067 36.1859713,14.138811 C32.8563183,11.4929502 28.4568926,11.7359988 25.4461258,14.7247747 C21.903481,18.2417602 18.3836997,21.7840131 14.8506816,25.3118275 C11.7243938,28.4317534 11.4680815,32.8583663 14.2453995,36.3031591 C15.8903708,38.3426016 17.5533923,40.3676055 19.2392773,42.3733581 C19.8758463,43.1301778 20.0346877,43.8869974 19.6387875,44.808657 C18.80126,46.7578586 17.9890028,48.7190924 17.1996091,50.6887487 C16.8265725,51.6212371 16.17075,52.0339385 15.1888213,52.1229761 C12.4692637,52.3684311 9.75331627,52.64156 7.03977547,52.9399563 C3.17583779,53.3658929 0.104903817,56.5965142 0.0543633675,60.4335538 C-0.0142272423,65.7565588 -0.0166339304,71.0819703 0.0399232391,76.4061785 C0.0820402803,80.3551167 3.14094081,83.6290536 7.05541895,84.0525838 C9.76895974,84.3473705 12.4849072,84.6204994 15.2032614,84.8659544 C16.1900035,84.954992 16.8361992,85.3917576 17.2080325,86.3170268 C17.9986296,88.286683 18.8132935,90.2455104 19.6399908,92.1995249 C20.0130275,93.0826817 19.885473,93.826266 19.2645475,94.5662407 C17.5991194,96.5527419 15.9445213,98.550072 14.334447,100.581092 C11.3994909,104.285778 11.6558032,108.483781 14.9794394,111.809456 C18.1779278,115.008794 21.3752129,118.209335 24.5797181,121.402657 C25.1645433,121.986214 25.7313183,122.603461 26.3859375,123.100387 C29.4291945,125.408146 33.4591937,125.143439 36.6649022,122.480734 C38.5962694,120.878057 40.5492967,119.30185 42.4758505,117.694361 C43.1906369,117.097568 43.9294901,116.992889 44.779051,117.351446 C46.7609586,118.185271 48.7476796,119.007064 50.739214,119.816825 C51.595995,120.164553 52.0328088,120.766158 52.1194496,121.691427 C52.3733552,124.408278 52.6597511,127.123925 52.9341135,129.839572 C53.3408438,133.860702 56.6717001,136.944532 60.7341895,136.972206 C65.9206023,137.008302 71.1082184,137.010709 76.2946312,136.972206 C80.3450872,136.940922 83.6651134,133.854686 84.0850805,129.819117 C84.3606463,127.158818 84.6470421,124.498518 84.8792875,121.834609 C84.968335,120.809474 85.4135723,120.157333 86.3738408,119.775916 C88.2943779,119.01308 90.2052882,118.223774 92.1005551,117.400777 C93.0788738,116.977247 93.8742842,117.126445 94.6865414,117.809869 C96.7984102,119.582199 98.9211091,121.346106 101.097958,123.039024 C104.194163,125.449055 108.651349,125.172316 111.39377,122.445841 C114.994175,118.867491 118.578937,115.274704 122.160089,111.678306 C122.60653,111.230712 123.04214,110.75785 123.395923,110.23686 C125.263513,107.487523 125.116705,103.726285 122.968736,100.960103 C122.006061,99.7207962 121.015709,98.5031468 120.016933,97.2927166 L110.498482,97.2927166 C110.806538,97.8955253 111.166338,98.4899115 111.617592,99.0674527" id="Fill-5" fill="#006694" mask="url(#mask-2)"></path>
                </g>
            </g>
        </g>
    </g>
</svg>