<svg width="156" height="130" xmlns="http://www.w3.org/2000/svg" xmlns:xlink="http://www.w3.org/1999/xlink"><defs><path id="a" d="M0 0h118.613v130H0z"/></defs><g fill="none" fill-rule="evenodd"><path d="M60.384 69.76A6.666 6.666 0 0 1 58.409 65c.001-3.714 3.022-6.739 6.735-6.74 3.73 0 6.76 3.026 6.76 6.747 0 3.699-3.014 6.714-6.72 6.721l-.006 1.14-.007.002v-1.142a6.737 6.737 0 0 1-4.787-1.968zm15.145-15.015a14.44 14.44 0 0 0-10.302-4.312H65.19c-8.05 0-14.614 6.502-14.63 14.494-.02 8.043 6.53 14.605 14.6 14.624 8.04 0 14.572-6.482 14.595-14.45.011-3.912-1.49-7.59-4.226-10.356z" fill="#006694"/><path d="M145.72 95.924a3.832 3.832 0 0 1-3.833-3.823 3.832 3.832 0 0 1 3.833-3.823 3.832 3.832 0 0 1 3.833 3.823 3.832 3.832 0 0 1-3.833 3.823M45.13 65.008c.002-11.053 8.938-19.99 19.994-19.998 11.11-.007 20.06 8.921 20.06 20.013 0 10.99-8.944 19.936-19.957 19.958-11.116.021-20.1-8.907-20.097-19.973m89.144-2.992a3.832 3.832 0 0 1 3.833 3.824 3.832 3.832 0 0 1-3.833 3.823 3.833 3.833 0 0 1-3.835-3.823 3.833 3.833 0 0 1 3.835-3.824m11.446-27.433a3.833 3.833 0 0 1 3.833 3.824 3.832 3.832 0 0 1-3.833 3.824 3.832 3.832 0 0 1-3.833-3.824 3.833 3.833 0 0 1 3.833-3.824m0 47.264c-4.353 0-8.073 2.716-9.57 6.536h-7.872v-6.338a3.22 3.22 0 0 0-3.225-3.215H88.655a26.735 26.735 0 0 0 3.553-10.278h32.16c1.198 4.34 5.18 7.543 9.906 7.543 5.668 0 10.28-4.602 10.28-10.255 0-5.654-4.612-10.254-10.28-10.254-4.354 0-8.075 2.716-9.572 6.535H92.266a27.267 27.267 0 0 0-3.341-10.442h36.128a3.22 3.22 0 0 0 3.225-3.216v-6.337h7.872c1.497 3.819 5.217 6.536 9.57 6.536 5.668 0 10.28-4.6 10.28-10.255 0-5.654-4.612-10.255-10.28-10.255-4.726 0-8.706 3.203-9.904 7.542h-10.763a3.22 3.22 0 0 0-3.223 3.215v6.338H83.92a27.03 27.03 0 0 0-18.622-7.461c-15.12-.037-27.385 12.075-27.42 27.072-.033 15.15 12.098 27.302 27.296 27.34 6.961.017 13.344-2.616 18.182-6.936h38.474v6.336a3.22 3.22 0 0 0 3.223 3.215h10.763c1.197 4.34 5.178 7.543 9.904 7.543 5.668 0 10.28-4.6 10.28-10.255 0-5.654-4.612-10.254-10.28-10.254" fill="#3ABEEE"/><g><mask id="b" fill="#fff"><use xlink:href="#a"/></mask><path d="M106.173 94.006c1.535 1.958 3.135 3.864 4.74 5.767.41.485.497.788-.014 1.289-3.214 3.16-6.403 6.346-9.578 9.547-.448.452-.742.478-1.233.064a321.122 321.122 0 0 0-5.588-4.59c-2.918-2.351-6.122-2.796-9.587-1.377-1.892.775-3.785 1.55-5.668 2.344-3.497 1.475-5.353 4.144-5.717 7.882-.227 2.318-.46 4.635-.664 6.955-.055.617-.238.893-.95.887-4.486-.036-8.974-.017-13.461-.018-.26 0-.518-.026-.87-.043-.15-1.46-.273-2.887-.448-4.31-.236-1.916-.339-3.871-.814-5.73-.65-2.54-2.373-4.347-4.772-5.416-2.202-.981-4.42-1.94-6.684-2.762-3.234-1.176-6.253-.64-8.945 1.515a329.947 329.947 0 0 0-5.713 4.687c-.46.387-.741.37-1.17-.062-3.193-3.22-6.404-6.421-9.632-9.607-.43-.424-.452-.696-.057-1.164a275.856 275.856 0 0 0 4.739-5.768c2.217-2.777 2.65-5.854 1.366-9.148a137.063 137.063 0 0 0-2.559-6.158c-1.475-3.303-4.087-5.079-7.675-5.443a440.574 440.574 0 0 0-7.05-.668c-.66-.056-.942-.243-.935-.989.04-4.45.038-8.9 0-13.35-.005-.77.272-.971.981-1.032 2.56-.218 5.127-.419 7.672-.77 3.29-.456 5.642-2.272 6.987-5.307.889-2.01 1.73-4.041 2.542-6.082 1.328-3.345.911-6.466-1.352-9.292-1.474-1.84-2.989-3.647-4.492-5.462-.716-.866-.725-.86.098-1.682 3.113-3.11 6.238-6.213 9.332-9.344.454-.459.756-.46 1.235-.059 1.91 1.598 3.823 3.191 5.778 4.732 2.789 2.2 5.877 2.616 9.177 1.332 1.953-.76 3.88-1.59 5.816-2.397 3.496-1.457 5.408-4.085 5.787-7.83a498.6 498.6 0 0 0 .67-7.034c.055-.628.254-.89.952-.885 4.54.032 9.08.015 13.62.017.206 0 .413.033.709.059.096.892.193 1.77.285 2.65.207 2.003.333 4.018.634 6.008.497 3.288 2.377 5.58 5.408 6.91 1.992.875 4.005 1.7 6.032 2.49 3.326 1.298 6.435.885 9.245-1.347a257.55 257.55 0 0 0 5.716-4.683c.515-.434.817-.406 1.292.074a980.654 980.654 0 0 0 9.523 9.49c.483.475.497.782.063 1.294-1.543 1.816-3.044 3.668-4.555 5.512a10.376 10.376 0 0 0-1.52 2.485h8.839c1.049-1.27 2.102-2.535 3.14-3.813 1.146-1.41 1.733-3.031 1.753-5.066-.013-1.812-.677-3.576-2.126-5.021-3.451-3.444-6.9-6.89-10.358-10.325-2.833-2.814-7.102-3.037-10.218-.53a344.078 344.078 0 0 0-5.843 4.775c-.775.652-1.537.774-2.463.373-1.804-.78-3.62-1.534-5.449-2.253-.924-.363-1.32-.994-1.405-1.96a258.676 258.676 0 0 0-.783-7.809C79.526 2.92 76.37.051 72.723.024A892.122 892.122 0 0 0 57.686.04c-3.72.033-6.876 2.876-7.303 6.537-.306 2.625-.552 5.257-.798 7.888-.085.901-.484 1.496-1.343 1.838a175.625 175.625 0 0 0-5.448 2.252c-.952.417-1.73.32-2.533-.358a241.179 241.179 0 0 0-5.84-4.78c-3.167-2.511-7.352-2.28-10.216.555-3.37 3.338-6.718 6.699-10.079 10.047-2.974 2.96-3.217 7.16-.575 10.43a368.942 368.942 0 0 0 4.75 5.76c.605.717.756 1.436.38 2.31-.797 1.85-1.57 3.71-2.32 5.58-.355.885-.98 1.276-1.913 1.36-2.587.234-5.17.493-7.752.776-3.675.404-6.596 3.47-6.644 7.11a643.257 643.257 0 0 0-.014 15.157c.04 3.747 2.95 6.854 6.673 7.256 2.581.28 5.165.539 7.75.772.94.084 1.554.499 1.908 1.377a325.355 325.355 0 0 0 2.313 5.582c.355.838.233 1.543-.357 2.245a269.482 269.482 0 0 0-4.69 5.708c-2.792 3.515-2.548 7.499.614 10.655 3.042 3.035 6.084 6.072 9.132 9.103.556.553 1.095 1.14 1.718 1.61 2.895 2.19 6.728 1.94 9.777-.587 1.838-1.521 3.695-3.017 5.528-4.542.68-.567 1.383-.666 2.19-.326 1.886.792 3.776 1.571 5.67 2.34.815.33 1.23.9 1.313 1.779.242 2.578.514 5.155.775 7.731a7.501 7.501 0 0 0 7.42 6.769c4.933.034 9.868.036 14.8 0 3.854-.03 7.012-2.959 7.411-6.788.262-2.524.535-5.049.756-7.577.085-.972.508-1.591 1.421-1.953a187.035 187.035 0 0 0 5.448-2.254c.93-.402 1.687-.26 2.46.388 2.009 1.682 4.028 3.356 6.098 4.962 2.946 2.287 7.185 2.025 9.794-.563 3.425-3.395 6.835-6.804 10.241-10.217.425-.425.84-.873 1.176-1.368 1.776-2.609 1.636-6.178-.407-8.802a151.714 151.714 0 0 0-2.808-3.48h-9.054a10.36 10.36 0 0 0 1.065 1.684" fill="#006694" mask="url(#b)"/></g></g></svg>