<svg width="130" height="130" xmlns="http://www.w3.org/2000/svg" xmlns:xlink="http://www.w3.org/1999/xlink"><defs><path id="a" d="M0 0h130v130H0z"/></defs><g fill="none" fill-rule="evenodd"><path fill="#3ABEEE" d="m87.386 43.413-1.63-11.081 17.278-17.926V7.887l-9.128-3.26-16.3 2.282-8.801 6.845-7.823 6.844-5.543 11.734-1.303 9.451 20.21 22.489 9.78-1.305 11.41 4.563 8.476 7.823 14.017-9.452 7.823-16.622.979-13.037-3.912-6.844-3.26-.326-11.41 8.8-8.149 8.473zM46.638 59.383 8.498 97.189s-5.543 18.904 3.91 24.444c9.455 5.54 20.538 1.955 25.429-3.586 4.89-5.54 27.382-26.399 27.382-26.399s-2.608-9.451-1.956-12.384c.653-2.934.978-4.889.978-4.889L46.638 59.383z"/><g><mask id="b" fill="#fff"><use xlink:href="#a"/></mask><path d="M20.423 0c-1.431 0-2.855.55-3.932 1.628L1.628 16.487a5.557 5.557 0 0 0-.516 7.265L23.405 53.47a5.56 5.56 0 0 0 4.447 2.224h12.12l3.262 3.262L9.012 93.192a20.279 20.279 0 0 0-5.981 14.435 20.28 20.28 0 0 0 5.982 14.436 20.29 20.29 0 0 0 14.44 5.982 20.29 20.29 0 0 0 14.44-5.983l26.126-26.12a22.609 22.609 0 0 0 2.306 2.7l27.193 27.188a14.136 14.136 0 0 0 10.059 4.17c3.804 0 7.375-1.486 10.054-4.184l12.225-12.221c5.529-5.567 5.522-14.576 0-20.097l-17.644-17.64c3.578-1.84 6.768-4.15 9.506-6.888 9.767-9.765 13.604-23.601 10.265-37.011-.906-3.708-4.238-6.314-8.095-6.314-2.224 0-4.318.87-5.897 2.448L98.735 43.346l-9.027-1.502-1.502-9.026 15.254-15.252a8.349 8.349 0 0 0 2.139-8.108 8.404 8.404 0 0 0-6.033-5.9 39.386 39.386 0 0 0-9.436-1.15c-10.425 0-20.219 4.052-27.577 11.407a38.018 38.018 0 0 0-7.706 11.065 5.547 5.547 0 0 0-1.366-1.48L23.757 1.112A5.541 5.541 0 0 0 20.423 0zm3.041 113.188a5.574 5.574 0 0 0 5.573-5.572 5.559 5.559 0 0 0-5.573-5.572 5.56 5.56 0 0 0-5.574 5.572c0 3.065 2.508 5.572 5.574 5.572zm24.871-51.473L61.502 74.88c-1.137 4.9-.603 9.937 1.162 14.558L33.96 118.133a14.817 14.817 0 0 1-10.509 4.354 14.815 14.815 0 0 1-10.508-4.354c-5.805-5.804-5.805-15.207 0-21.011l35.391-35.407zM90.13 7.965c2.714 0 5.426.328 8.075.981 2.113.534 2.857 3.158 1.324 4.69L82.252 30.91l2.624 15.764 15.767 2.624 17.277-17.274a2.763 2.763 0 0 1 1.968-.82c1.205 0 2.377.774 2.7 2.097 2.74 11.006-.186 23.125-8.8 31.739-3.02 3.018-6.503 5.247-10.172 6.848l-4.505-4.504c-4.645-4.644-10.821-7.197-17.393-7.197-1.905 0-3.855.232-5.736.674L56.916 41.799c-.162-8.706 2.95-17.437 9.567-24.053 6.526-6.523 15.087-9.78 23.647-9.78zM20.421 5.559l29.725 22.289v14.417l24.755 24.75a17.417 17.417 0 0 1 7.694-1.79c4.396 0 8.784 1.664 12.137 5.017l27.193 27.188c3.367 3.366 3.367 8.846 0 12.235L109.686 121.9a8.582 8.582 0 0 1-6.11 2.542 8.642 8.642 0 0 1-6.127-2.542L70.257 94.712c-5.365-5.362-6.387-13.373-3.229-19.828l-24.754-24.75H27.852L5.56 20.418 20.42 5.557z" fill="#006694" mask="url(#b)"/></g></g></svg>