<?xml version="1.0" encoding="UTF-8"?>
<svg width="132px" height="132px" viewBox="0 0 132 132" version="1.1" xmlns="http://www.w3.org/2000/svg" xmlns:xlink="http://www.w3.org/1999/xlink">
    <title>SOFTWARE</title>
    <defs>
        <polygon id="path-1" points="0 0 131.709575 0 131.709575 131.7376 0 131.7376"></polygon>
    </defs>
    <g id="Page-1" stroke="none" stroke-width="1" fill="none" fill-rule="evenodd">
        <g id="HOMEPAGE_FINAL" transform="translate(-474.000000, -1464.000000)">
            <g id="SOFTWARE" transform="translate(474.000000, 1464.000000)">
                <polygon id="Fill-1" fill="#3ABEEE" points="88.5355 43.9928 86.8845 32.7638 104.3885 14.5988 104.3885 7.9928 95.1405 4.6898 78.6275 7.0018 69.7095 13.9378 61.7835 20.8738 56.1685 32.7638 54.8475 42.3418 75.3245 65.1308 85.2325 63.8088 96.7925 68.4328 105.3795 76.3598 119.5815 66.7818 127.5075 49.9378 128.4985 36.7268 124.5355 29.7908 121.2325 29.4608 109.6735 38.3778 101.4165 46.9648"></polygon>
                <g id="Group-7">
                    <path d="M47.2511,60.1763 L8.6091,98.4883 C8.6091,98.4883 2.9941,117.6443 12.5721,123.2583 C22.1501,128.8733 33.3791,125.2403 38.3341,119.6253 C43.2881,114.0113 66.0771,92.8733 66.0771,92.8733 C66.0771,92.8733 63.4341,83.2953 64.0951,80.3233 C64.7561,77.3503 65.0861,75.3693 65.0861,75.3693 L47.2511,60.1763 Z" id="Fill-2" fill="#3ABEEE"></path>
                    <g id="Group-6">
                        <mask id="mask-2" fill="white">
                            <use xlink:href="#path-1"></use>
                        </mask>
                        <g id="Clip-5"></g>
                        <path d="M20.6917,0 C19.2417,0 17.7987,0.558 16.7077,1.65 L1.6497,16.707 C-0.3323,18.689 -0.5553,21.827 1.1267,24.069 L23.7127,54.185 C24.7757,55.603 26.4457,56.438 28.2187,56.438 L40.4967,56.438 L43.8027,59.744 L9.1307,94.438 C5.2227,98.346 3.0707,103.541 3.0707,109.066 C3.0707,114.591 5.2227,119.786 9.1317,123.695 C13.0397,127.603 18.2357,129.756 23.7607,129.756 C29.2867,129.756 34.4817,127.603 38.3907,123.694 L64.8607,97.225 C65.5587,98.186 66.3387,99.102 67.1977,99.961 L94.7477,127.512 C97.4727,130.237 101.0917,131.738 104.9387,131.738 C108.7927,131.738 112.4107,130.232 115.1257,127.498 L127.5107,115.113 C133.1127,109.472 133.1057,100.343 127.5107,94.748 L109.6347,76.871 C113.2597,75.007 116.4917,72.666 119.2657,69.892 C129.1617,59.996 133.0487,45.975 129.6657,32.386 C128.7477,28.629 125.3727,25.988 121.4647,25.988 C119.2117,25.988 117.0897,26.869 115.4897,28.468 L100.0337,43.925 L90.8877,42.403 L89.3657,33.257 L104.8207,17.801 C106.9637,15.658 107.7937,12.51 106.9877,9.584 C106.1767,6.644 103.8347,4.353 100.8757,3.605 C97.7337,2.83 94.5277,2.44 91.3157,2.44 C80.7527,2.44 70.8307,6.546 63.3757,14 C60.0837,17.293 57.4597,21.083 55.5687,25.213 C55.2077,24.64 54.7407,24.13 54.1847,23.713 L24.0697,1.127 C23.0627,0.371 21.8747,0 20.6917,0 L20.6917,0 Z M23.7727,114.701 C26.9017,114.701 29.4187,112.16 29.4187,109.054 C29.4187,105.925 26.9017,103.408 23.7727,103.408 C20.6437,103.408 18.1257,105.925 18.1257,109.054 C18.1257,112.16 20.6667,114.701 23.7727,114.701 L23.7727,114.701 Z M48.9707,62.54 L62.3107,75.88 C61.1587,80.845 61.6997,85.95 63.4877,90.632 L34.4077,119.712 C31.4667,122.653 27.6137,124.124 23.7607,124.124 C19.9077,124.124 16.0557,122.653 13.1147,119.712 C7.2327,113.83 7.2327,104.302 13.1147,98.42 L48.9707,62.54 L48.9707,62.54 Z M91.3157,8.072 C94.0647,8.072 96.8127,8.404 99.4967,9.066 C101.6377,9.607 102.3907,12.266 100.8377,13.819 L83.3337,31.323 L85.9917,47.298 L101.9667,49.957 L119.4707,32.452 C120.0407,31.883 120.7587,31.621 121.4647,31.621 C122.6857,31.621 123.8727,32.405 124.2007,33.746 C126.9767,44.899 124.0117,57.18 115.2837,65.909 C112.2247,68.968 108.6957,71.226 104.9787,72.849 L100.4147,68.285 C95.7087,63.579 89.4507,60.991 82.7927,60.991 C80.8627,60.991 78.8867,61.227 76.9817,61.674 L57.6647,42.358 C57.5007,33.535 60.6527,24.688 67.3577,17.983 C73.9687,11.373 82.6427,8.072 91.3157,8.072 L91.3157,8.072 Z M20.6897,5.632 L50.8057,28.219 L50.8057,42.829 L75.8857,67.91 C78.3367,66.702 81.0107,66.095 83.6807,66.095 C88.1347,66.095 92.5807,67.782 95.9777,71.18 L123.5287,98.731 C126.9397,102.142 126.9397,107.695 123.5287,111.13 L111.1287,123.529 C109.4237,125.246 107.1827,126.105 104.9387,126.105 C102.6947,126.105 100.4477,125.246 98.7307,123.529 L71.1807,95.978 C65.7457,90.544 64.7097,82.426 67.9097,75.885 L42.8297,50.805 L28.2187,50.805 L5.6327,20.69 L20.6897,5.632 Z" id="Fill-4" fill="#006694" mask="url(#mask-2)"></path>
                    </g>
                </g>
            </g>
        </g>
    </g>
</svg>